<svg width="24" height="24" viewBox="0 0 24 24" fill="none" xmlns="http://www.w3.org/2000/svg">
<path d="M12 22.3449C6.29543 22.3449 1.65515 17.7047 1.65515 12.0001C1.65515 6.29555 6.29543 1.65527 12 1.65527C17.7045 1.65527 22.3448 6.29555 22.3448 12.0001C22.3448 17.7047 17.7045 22.3449 12 22.3449ZM12 3.31045C7.20825 3.31045 3.31032 7.20838 3.31032 12.0001C3.31032 16.7918 7.20825 20.6898 12 20.6898C16.7917 20.6898 20.6896 16.7918 20.6896 12.0001C20.6896 7.20838 16.7917 3.31045 12 3.31045Z" fill="#35363B"/>
<path d="M12 13.6551C12.9141 13.6551 13.6552 12.914 13.6552 11.9999C13.6552 11.0858 12.9141 10.3447 12 10.3447C11.0859 10.3447 10.3448 11.0858 10.3448 11.9999C10.3448 12.914 11.0859 13.6551 12 13.6551Z" fill="#35363B"/>
<path d="M7.03444 13.6551C7.94857 13.6551 8.68962 12.914 8.68962 11.9999C8.68962 11.0858 7.94857 10.3447 7.03444 10.3447C6.12032 10.3447 5.37927 11.0858 5.37927 11.9999C5.37927 12.914 6.12032 13.6551 7.03444 13.6551Z" fill="#35363B"/>
<path d="M16.9655 13.6551C17.8796 13.6551 18.6206 12.914 18.6206 11.9999C18.6206 11.0858 17.8796 10.3447 16.9655 10.3447C16.0513 10.3447 15.3103 11.0858 15.3103 11.9999C15.3103 12.914 16.0513 13.6551 16.9655 13.6551Z" fill="#35363B"/>
</svg>
