<svg width="13" height="11" viewBox="0 0 13 11" fill="none" xmlns="http://www.w3.org/2000/svg">
<path d="M6.4898 10.0226C6.27322 10.0232 6.06333 9.91404 5.89656 9.714L0.334863 3.00479C0.145564 2.77703 0.0265212 2.44974 0.00392239 2.09492C-0.0186764 1.7401 0.05702 1.38682 0.214359 1.11279C0.371698 0.838768 0.597792 0.666444 0.842901 0.63373C1.08801 0.601016 1.33206 0.710593 1.52136 0.938355L6.4898 6.94981L11.4583 1.15305C11.5531 1.04159 11.6622 0.958353 11.7793 0.908125C11.8964 0.857898 12.0192 0.84167 12.1407 0.860374C12.2621 0.879078 12.3798 0.932345 12.487 1.01711C12.5942 1.10188 12.6888 1.21648 12.7653 1.35433C12.8501 1.4923 12.9144 1.65416 12.9541 1.82977C12.9938 2.00538 13.0079 2.19096 12.9958 2.37488C12.9836 2.55879 12.9453 2.73709 12.8833 2.89859C12.8213 3.06009 12.7369 3.20131 12.6355 3.31341L7.07378 9.79451C6.90222 9.96293 6.69661 10.0432 6.4898 10.0226Z" fill="black" fill-opacity="0.75"/>
</svg>
