<svg width="24" height="24" viewBox="0 0 24 24" fill="none" xmlns="http://www.w3.org/2000/svg">
<g clip-path="url(#clip0_1171_3058)">
<path d="M7.875 0.75H14.25V9.75H7.875V0.75Z" fill="#7FD73C"/>
<path d="M22.3125 18.1876C22.3115 19.336 21.9201 20.4499 21.2025 21.3465C20.4849 22.2431 19.4838 22.869 18.3635 23.1216C17.2433 23.3742 16.0704 23.2384 15.0375 22.7365C14.0046 22.2346 13.173 21.3965 12.6793 20.3596C12.1855 19.3228 12.059 18.1489 12.3204 17.0307C12.5818 15.9124 13.2157 14.9163 14.1179 14.2058C15.0201 13.4953 16.1371 13.1127 17.2855 13.1207C18.4338 13.1288 19.5453 13.527 20.4375 14.2501C21.0239 14.725 21.4967 15.3251 21.8211 16.0064C22.1455 16.6877 22.3134 17.433 22.3125 18.1876Z" fill="#7FD73C"/>
<path d="M18.9375 0H3.1875C2.59076 0 2.01847 0.237053 1.59651 0.65901C1.17455 1.08097 0.9375 1.65326 0.9375 2.25V18C0.9375 18.5967 1.17455 19.169 1.59651 19.591C2.01847 20.0129 2.59076 20.25 3.1875 20.25H11.8125C12.1234 21.0687 12.6154 21.8064 13.2517 22.4081C13.888 23.0098 14.652 23.4599 15.4868 23.7246C16.3215 23.9894 17.2053 24.062 18.0721 23.9369C18.9388 23.8119 19.7661 23.4925 20.492 23.0027C21.2179 22.5129 21.8237 21.8652 22.264 21.1082C22.7043 20.3513 22.9677 19.5045 23.0346 18.6314C23.1015 17.7582 22.9701 16.8812 22.6502 16.066C22.3304 15.2508 21.8303 14.5184 21.1875 13.9238V2.25C21.1875 1.65326 20.9504 1.08097 20.5285 0.65901C20.1065 0.237053 19.5342 0 18.9375 0ZM8.625 1.5H13.5V9H8.625V1.5ZM11.4675 18.75H3.1875C2.98859 18.75 2.79782 18.671 2.65717 18.5303C2.51652 18.3897 2.4375 18.1989 2.4375 18V2.25C2.4375 2.05109 2.51652 1.86032 2.65717 1.71967C2.79782 1.57902 2.98859 1.5 3.1875 1.5H7.125V9.75C7.125 9.94891 7.20402 10.1397 7.34467 10.2803C7.48532 10.421 7.67609 10.5 7.875 10.5H14.25C14.4489 10.5 14.6397 10.421 14.7803 10.2803C14.921 10.1397 15 9.94891 15 9.75V1.5H18.9375C19.1364 1.5 19.3272 1.57902 19.4678 1.71967C19.6085 1.86032 19.6875 2.05109 19.6875 2.25V12.9188C18.8043 12.5064 17.8313 12.3234 16.8586 12.3867C15.8859 12.45 14.9448 12.7575 14.1225 13.2808C13.3001 13.8042 12.623 14.5264 12.1537 15.3807C11.6843 16.2351 11.438 17.194 11.4375 18.1688C11.4373 18.3629 11.4473 18.5569 11.4675 18.75ZM21.5625 18.1875C21.5625 19.0404 21.3096 19.8742 20.8357 20.5834C20.3619 21.2926 19.6883 21.8453 18.9003 22.1717C18.1123 22.4981 17.2452 22.5835 16.4087 22.4171C15.5721 22.2507 14.8037 21.84 14.2006 21.2369C13.5975 20.6338 13.1868 19.8654 13.0204 19.0288C12.854 18.1923 12.9394 17.3252 13.2658 16.5372C13.5922 15.7492 14.1449 15.0757 14.8541 14.6018C15.5633 14.1279 16.3971 13.875 17.25 13.875C18.3934 13.876 19.4898 14.3307 20.2983 15.1392C21.1068 15.9477 21.5615 17.0441 21.5625 18.1875Z" fill="#009245"/>
<path d="M16.4175 19.1887L14.1375 16.9087L13.0762 17.9662L15.8887 20.7787C16.0288 20.9195 16.2189 20.9991 16.4175 20.9999C16.5165 21 16.6145 20.9805 16.7059 20.9425C16.7973 20.9046 16.8802 20.8489 16.95 20.7787L21.075 16.6537L20.0137 15.5962L16.4175 19.1887ZM3.5625 16.1249H5.0625V17.6249H3.5625V16.1249ZM5.8125 16.1249H7.3125V17.6249H5.8125V16.1249Z" fill="#009245"/>
</g>
<defs>
<clipPath id="clip0_1171_3058">
<rect width="24" height="24" fill="white"/>
</clipPath>
</defs>
</svg>
