<svg width="24" height="24" viewBox="0 0 24 24" fill="none" xmlns="http://www.w3.org/2000/svg">
<path d="M19.3123 19.3124H4.6873C3.8248 19.3124 3.1123 18.5999 3.1123 17.7374V8.3249C3.1123 7.4624 3.8248 6.7499 4.6873 6.7499H7.8373C7.9123 6.7499 8.0998 6.6374 8.1373 6.5624L8.6998 5.3999C8.9248 4.9874 9.4498 4.6499 9.9373 4.6499H14.0998C14.5873 4.6499 15.1123 4.9874 15.3373 5.3999L15.8998 6.5624C15.9373 6.6374 16.0873 6.7499 16.1998 6.7499H19.3498C20.2123 6.7499 20.9248 7.4624 20.9248 8.3249V17.7374C20.8873 18.5999 20.1748 19.3124 19.3123 19.3124ZM4.6873 7.8374C4.3873 7.8374 4.1623 8.0624 4.1623 8.3624V17.7749C4.1623 18.0749 4.3873 18.2999 4.6873 18.2999H19.3123C19.6123 18.2999 19.8373 18.0749 19.8373 17.7749V8.3624C19.8373 8.0624 19.6123 7.8374 19.3123 7.8374H16.1623C15.6748 7.8374 15.1498 7.4999 14.9248 7.0874L14.3623 5.9249C14.3248 5.8499 14.1748 5.7374 14.0623 5.7374H9.8998C9.8248 5.7374 9.6373 5.8499 9.5998 5.9249L9.0373 7.0874C8.8123 7.4999 8.2873 7.8374 7.7998 7.8374H4.6873Z" fill="white"/>
<path d="M11.9999 17.2123C9.4124 17.2123 7.3124 15.1123 7.3124 12.5248C7.3124 9.9373 9.4124 7.8373 11.9999 7.8373C14.5874 7.8373 16.6874 9.9373 16.6874 12.5248C16.6874 15.1123 14.5874 17.2123 11.9999 17.2123ZM11.9999 8.8498C9.9749 8.8498 8.3249 10.4998 8.3249 12.5248C8.3249 14.5498 9.9749 16.1998 11.9999 16.1998C14.0249 16.1998 15.6749 14.5498 15.6749 12.5248C15.6749 10.4998 14.0249 8.8498 11.9999 8.8498ZM17.7374 8.8498C17.7374 9.1498 17.5124 9.3748 17.2124 9.3748C16.9124 9.3748 16.6874 9.1498 16.6874 8.8498C16.6874 8.5498 16.9124 8.3248 17.2124 8.3248C17.5124 8.3248 17.7374 8.5873 17.7374 8.8498ZM5.2124 5.7373H7.3124V6.2623H5.2124V5.7373Z" fill="white"/>
<path d="M12 10.4249V9.8999C10.575 9.8999 9.375 11.0624 9.375 12.5249H9.9C9.9 11.3624 10.8375 10.4249 12 10.4249Z" fill="white"/>
</svg>
