<svg width="30" height="28" viewBox="0 0 30 28" fill="none" xmlns="http://www.w3.org/2000/svg">
<path d="M24.7666 8.20002V5.33335H21.9V3.33335H24.7666V0.43335H26.7666V3.33335H29.6666V5.33335H26.7666V8.20002H24.7666ZM2.1333 27.3334C1.59997 27.3334 1.1333 27.1334 0.733301 26.7334C0.333301 26.3334 0.133301 25.8667 0.133301 25.3334V8.23335C0.133301 7.72224 0.333301 7.26113 0.733301 6.85002C1.1333 6.43891 1.59997 6.23335 2.1333 6.23335H7.0333L9.46663 3.33335H18.8V5.33335H10.4L7.96663 8.23335H2.1333V25.3334H24.8V11.3334H26.8V25.3334C26.8 25.8667 26.5944 26.3334 26.1833 26.7334C25.7722 27.1334 25.3111 27.3334 24.8 27.3334H2.1333ZM13.45 22.4667C15.0611 22.4667 16.4111 21.9222 17.5 20.8334C18.5889 19.7445 19.1333 18.3945 19.1333 16.7833C19.1333 15.1722 18.5889 13.8278 17.5 12.75C16.4111 11.6722 15.0611 11.1334 13.45 11.1334C11.8389 11.1334 10.4944 11.6722 9.41663 12.75C8.33886 13.8278 7.79997 15.1722 7.79997 16.7833C7.79997 18.3945 8.33886 19.7445 9.41663 20.8334C10.4944 21.9222 11.8389 22.4667 13.45 22.4667ZM13.45 20.4667C12.3944 20.4667 11.5222 20.1167 10.8333 19.4167C10.1444 18.7167 9.79997 17.8389 9.79997 16.7833C9.79997 15.7278 10.1444 14.8556 10.8333 14.1667C11.5222 13.4778 12.3944 13.1334 13.45 13.1334C14.5055 13.1334 15.3833 13.4778 16.0833 14.1667C16.7833 14.8556 17.1333 15.7278 17.1333 16.7833C17.1333 17.8389 16.7833 18.7167 16.0833 19.4167C15.3833 20.1167 14.5055 20.4667 13.45 20.4667Z" fill="#F7F7F7"/>
</svg>
