<svg width="24" height="24" viewBox="0 0 24 24" fill="none" xmlns="http://www.w3.org/2000/svg">
<path d="M19.6387 4.125H4.36122C3.81421 4.125 3.2896 4.3423 2.90281 4.72909C2.51601 5.11589 2.29872 5.64049 2.29872 6.1875V19.3125C2.29804 19.4297 2.33375 19.5442 2.40091 19.6403C2.46808 19.7363 2.5634 19.8092 2.67372 19.8488C2.73296 19.8682 2.79515 19.8771 2.85747 19.875C2.94242 19.8765 3.02656 19.8583 3.10332 19.8218C3.18008 19.7854 3.24738 19.7317 3.29997 19.665L5.92497 16.3162H19.6387C20.1857 16.3162 20.7103 16.099 21.0971 15.7122C21.4839 15.3254 21.7012 14.8008 21.7012 14.2537V6.195C21.7022 5.92352 21.6496 5.65451 21.5464 5.40341C21.4432 5.15231 21.2914 4.92406 21.0998 4.73174C20.9082 4.53943 20.6805 4.38683 20.4297 4.28271C20.179 4.17859 19.9102 4.125 19.6387 4.125ZM17.7637 13.6275H6.22122C6.07203 13.6275 5.92896 13.5682 5.82347 13.4627C5.71798 13.3573 5.65872 13.2142 5.65872 13.065C5.65872 12.9158 5.71798 12.7727 5.82347 12.6673C5.92896 12.5618 6.07203 12.5025 6.22122 12.5025H17.7787C17.9279 12.5025 18.071 12.5618 18.1765 12.6673C18.282 12.7727 18.3412 12.9158 18.3412 13.065C18.3412 13.2142 18.282 13.3573 18.1765 13.4627C18.071 13.5682 17.9279 13.6275 17.7787 13.6275H17.7637ZM17.7637 10.7775H6.22122C6.07203 10.7775 5.92896 10.7182 5.82347 10.6127C5.71798 10.5073 5.65872 10.3642 5.65872 10.215C5.65872 10.0658 5.71798 9.92274 5.82347 9.81725C5.92896 9.71176 6.07203 9.6525 6.22122 9.6525H17.7787C17.9279 9.6525 18.071 9.71176 18.1765 9.81725C18.282 9.92274 18.3412 10.0658 18.3412 10.215C18.3412 10.3642 18.282 10.5073 18.1765 10.6127C18.071 10.7182 17.9279 10.7775 17.7787 10.7775H17.7637ZM17.7637 7.92375H10.7212C10.572 7.92375 10.429 7.86449 10.3235 7.759C10.218 7.65351 10.1587 7.51043 10.1587 7.36125C10.1587 7.21207 10.218 7.06899 10.3235 6.9635C10.429 6.85801 10.572 6.79875 10.7212 6.79875H17.7787C17.9279 6.79875 18.071 6.85801 18.1765 6.9635C18.282 7.06899 18.3412 7.21207 18.3412 7.36125C18.3412 7.51043 18.282 7.65351 18.1765 7.759C18.071 7.86449 17.9279 7.92375 17.7787 7.92375H17.7637Z" fill="#009245"/>
</svg>
