<svg width="28" height="26" viewBox="0 0 28 26" fill="none" xmlns="http://www.w3.org/2000/svg">
<path d="M6.17393 15.5H16.6087V13H6.17393V15.5ZM6.17393 11.75H21.8261V9.25H6.17393V11.75ZM6.17393 8H21.8261V5.5H6.17393V8ZM0.956543 25.5V3C0.956543 2.3125 1.2122 1.72375 1.7235 1.23375C2.2348 0.743752 2.84872 0.499169 3.56524 0.500002H24.4348C25.1522 0.500002 25.7665 0.745002 26.2778 1.235C26.7891 1.725 27.0444 2.31334 27.0435 3V18C27.0435 18.6875 26.7878 19.2763 26.2765 19.7663C25.7652 20.2563 25.1513 20.5008 24.4348 20.5H6.17393L0.956543 25.5Z" fill="white"/>
</svg>
