<svg width="24" height="24" viewBox="0 0 24 24" fill="none" xmlns="http://www.w3.org/2000/svg">
<path d="M8.5425 22.4213H10.4662C10.6687 22.4213 10.83 22.26 10.83 22.0575C10.83 21.855 10.6687 21.6938 10.4662 21.6938H8.5425C8.34 21.6938 8.17875 21.855 8.17875 22.0575C8.17875 22.26 8.34 22.4213 8.5425 22.4213ZM11.0475 1.58252H7.9575C7.755 1.58252 7.59375 1.74377 7.59375 1.94627C7.59375 2.14877 7.755 2.31002 7.9575 2.31002H11.0475C11.25 2.31002 11.4113 2.14877 11.4113 1.94627C11.4113 1.74377 11.25 1.58252 11.0475 1.58252Z" fill="#009245"/>
<path d="M19.6875 6.945H16.1775V3.52875V1.215C16.1737 0.54375 15.63 0 14.9625 0H4.04621C3.37871 0 2.83496 0.54375 2.83496 1.215V22.7888C2.83496 23.4563 3.37871 24 4.04621 24H14.9625C15.63 24 16.1737 23.4563 16.1737 22.7888V20.4788V15.5287H16.455L18.1537 16.9763C18.2212 17.0325 18.3037 17.0625 18.39 17.0625C18.4425 17.0625 18.495 17.0512 18.5437 17.0287C18.6712 16.9687 18.7537 16.8412 18.7537 16.6987V15.5287H19.6837C20.5012 15.5287 21.165 14.865 21.165 14.0475V8.42625C21.165 7.60875 20.5012 6.945 19.6875 6.945ZM3.56246 1.215C3.56246 0.945 3.77996 0.7275 4.04621 0.7275H14.9625C15.2287 0.7275 15.4462 0.945 15.4462 1.215V3.165H3.56246V1.215ZM15.4462 22.7888C15.4462 23.055 15.2287 23.2725 14.9625 23.2725H4.04621C3.77996 23.2725 3.56246 23.055 3.56246 22.7888V20.8387H15.4462V22.7888ZM15.4462 20.1113H3.56246V3.8925H15.4462V6.945H10.2225C9.40496 6.945 8.74121 7.60875 8.74121 8.42625V14.0438C8.74121 14.8613 9.40496 15.525 10.2225 15.525H15.45V20.1113H15.4462ZM20.4375 14.0438C20.4375 14.46 20.1 14.7975 19.6837 14.7975H18.39C18.1875 14.7975 18.0262 14.9588 18.0262 15.1613V15.9075L16.8262 14.8837C16.7587 14.8275 16.6762 14.7975 16.59 14.7975H15.8137H15.81H15.8062H10.2187C9.80246 14.7975 9.46496 14.46 9.46496 14.0438V8.42625C9.46496 8.01 9.80246 7.6725 10.2187 7.6725H19.6875C20.1037 7.6725 20.4412 8.01 20.4412 8.42625V14.0438H20.4375Z" fill="#009245"/>
<path d="M14.9549 8.80127C13.5524 8.80127 12.4087 9.94502 12.4087 11.3475C12.4087 12.75 13.5524 13.8938 14.9549 13.8938C16.3574 13.8938 17.5012 12.7538 17.5012 11.3475C17.4974 9.94502 16.3574 8.80127 14.9549 8.80127ZM14.9549 13.1663C13.9537 13.1663 13.1362 12.3488 13.1362 11.3475C13.1362 10.3463 13.9537 9.52877 14.9549 9.52877C15.9562 9.52877 16.7737 10.3463 16.7737 11.3475C16.7699 12.3488 15.9562 13.1663 14.9549 13.1663Z" fill="#009245"/>
<path d="M15.6337 10.4926L14.6962 11.4301L14.2725 11.0064C14.13 10.8639 13.9012 10.8639 13.7587 11.0064C13.6162 11.1489 13.6162 11.3776 13.7587 11.5201L14.4375 12.1989C14.5087 12.2701 14.6025 12.3039 14.6962 12.3039C14.79 12.3039 14.8837 12.2701 14.955 12.1989L16.1512 11.0026C16.2937 10.8601 16.2937 10.6314 16.1512 10.4889C16.005 10.3501 15.7762 10.3501 15.6337 10.4926Z" fill="#009245"/>
</svg>
