<svg width="24" height="24" viewBox="0 0 24 24" fill="none" xmlns="http://www.w3.org/2000/svg">
<path d="M3.60005 23V21.5H20.4V23H3.60005ZM3.60005 2.5V1H20.4V2.5H3.60005ZM12 12.9C12.8334 12.9 13.5334 12.6167 14.1 12.05C14.6667 11.4833 14.95 10.7833 14.95 9.95C14.95 9.11667 14.6667 8.41667 14.1 7.85C13.5334 7.28333 12.8334 7 12 7C11.1667 7 10.4667 7.28333 9.90005 7.85C9.33338 8.41667 9.05005 9.11667 9.05005 9.95C9.05005 10.7833 9.33338 11.4833 9.90005 12.05C10.4667 12.6167 11.1667 12.9 12 12.9ZM3.30005 20C2.90005 20 2.55005 19.85 2.25005 19.55C1.95005 19.25 1.80005 18.9 1.80005 18.5V5.5C1.80005 5.06667 1.95005 4.70833 2.25005 4.425C2.55005 4.14167 2.90005 4 3.30005 4H20.7C21.1 4 21.45 4.15 21.75 4.45C22.05 4.75 22.2 5.1 22.2 5.5V18.5C22.2 18.9 22.05 19.25 21.75 19.55C21.45 19.85 21.1 20 20.7 20H3.30005ZM5.50005 18.5C6.35005 17.45 7.35838 16.6625 8.52505 16.1375C9.69172 15.6125 10.8459 15.35 11.9875 15.35C13.1292 15.35 14.2959 15.6125 15.4875 16.1375C16.6792 16.6625 17.6834 17.45 18.5 18.5H20.7V5.5H3.30005V18.5H5.50005ZM7.85005 18.5H16.2C15.6834 18 15.0792 17.6 14.3875 17.3C13.6959 17 12.9 16.85 12 16.85C11.1 16.85 10.3125 17 9.63755 17.3C8.96255 17.6 8.36672 18 7.85005 18.5ZM12.004 11.4C11.6014 11.4 11.2625 11.2583 10.9875 10.975C10.7125 10.6917 10.575 10.35 10.575 9.95C10.575 9.55 10.7112 9.20833 10.9836 8.925C11.256 8.64167 11.5935 8.5 11.9961 8.5C12.3987 8.5 12.7375 8.64167 13.0125 8.925C13.2875 9.20833 13.425 9.55 13.425 9.95C13.425 10.35 13.2889 10.6917 13.0165 10.975C12.7441 11.2583 12.4066 11.4 12.004 11.4Z" fill="#009245"/>
</svg>
