<svg width="30" height="14" viewBox="0 0 30 14" fill="none" xmlns="http://www.w3.org/2000/svg">
<path d="M22.9743 8.08407H25.7497C25.9532 8.08407 26.1361 7.98854 26.2514 7.82197C26.3926 7.61791 26.411 7.3347 26.3019 7.04495L26.2792 6.98447L26.2412 6.93217C26.237 6.92635 25.8146 6.34459 25.3808 5.77034C25.1241 5.43053 24.9129 5.15883 24.7531 4.96278C24.4572 4.59976 24.3033 4.42527 24.0397 4.42527H22.9743C22.727 4.42527 22.5018 4.57502 22.3717 4.82584C22.2884 4.98644 22.2444 5.18054 22.2444 5.38716V7.12212C22.2444 7.32875 22.2884 7.52286 22.3717 7.68346C22.5018 7.93431 22.727 8.08407 22.9743 8.08407ZM23.2044 7.12212V5.38717C23.2044 5.38653 23.2044 5.3859 23.2044 5.38527H23.8555C24.0919 5.65456 24.6564 6.39512 25.1925 7.12407H23.2044C23.2044 7.12342 23.2044 7.12277 23.2044 7.12212ZM2.9647 3.50199L5.19217 3.50201C5.45725 3.50201 5.67217 3.28709 5.67217 3.02201C5.67217 2.75691 5.45727 2.54201 5.19217 2.54201L2.9647 2.54199C2.69962 2.54199 2.4847 2.75691 2.4847 3.02199C2.4847 3.28709 2.6996 3.50199 2.9647 3.50199ZM5.67217 5.55968C5.67217 5.29459 5.45727 5.07968 5.19217 5.07968L0.815327 5.07966C0.550249 5.07966 0.335327 5.29459 0.335327 5.55966C0.335327 5.82476 0.550226 6.03966 0.815327 6.03966L5.19217 6.03968C5.45725 6.03968 5.67217 5.82476 5.67217 5.55968ZM5.67217 8.09738C5.67217 7.83229 5.45727 7.61738 5.19217 7.61738L2.9647 7.61737C2.69962 7.61737 2.4847 7.83228 2.4847 8.09737C2.4847 8.36246 2.6996 8.57737 2.9647 8.57737L5.19217 8.57738C5.45725 8.57738 5.67217 8.36247 5.67217 8.09738Z" fill="#009245"/>
<path d="M10.5905 12.7176C10.9628 12.7176 11.2646 12.4158 11.2646 12.0435C11.2646 11.6712 10.9628 11.3694 10.5905 11.3694C10.2182 11.3694 9.91638 11.6712 9.91638 12.0435C9.91638 12.4158 10.2182 12.7176 10.5905 12.7176Z" fill="#009245"/>
<path d="M24.615 12.7176C24.9873 12.7176 25.2891 12.4158 25.2891 12.0435C25.2891 11.6712 24.9873 11.3694 24.615 11.3694C24.2427 11.3694 23.9409 11.6712 23.9409 12.0435C23.9409 12.4158 24.2427 12.7176 24.615 12.7176Z" fill="#009245"/>
<path d="M29.2204 10.4305C28.9913 10.2672 28.6977 10.175 28.3905 10.1688V6.96461C28.3905 6.7478 28.2969 6.47097 28.163 6.29135L25.5283 2.7598C25.3657 2.5418 25.0503 2.38953 24.7614 2.38953H21.4425V0.754969C21.4425 0.339758 21.1151 0.00195312 20.7126 0.00195312H6.91665C6.51416 0.00195312 6.18671 0.339758 6.18671 0.754969V10.1688C5.87954 10.175 5.58593 10.2672 5.35677 10.4305C5.07441 10.6318 4.91248 10.9261 4.91248 11.2378V11.4541C4.91248 11.7658 5.07442 12.06 5.35678 12.2613C5.59408 12.4305 5.90046 12.5237 6.21949 12.5237H8.6957C8.91021 13.3701 9.67838 13.9982 10.5906 13.9982C11.5027 13.9982 12.2709 13.3701 12.4854 12.5237H22.7202C22.9347 13.3701 23.7029 13.9982 24.6151 13.9982C25.5272 13.9982 26.2954 13.3701 26.5099 12.5237H28.3577C28.6768 12.5237 28.9831 12.4305 29.2204 12.2613C29.5028 12.06 29.6647 11.7658 29.6647 11.4541V11.2378C29.6647 10.9261 29.5028 10.6318 29.2204 10.4305ZM24.754 3.34953C24.7604 3.35102 24.7695 3.35444 24.7769 3.35802L27.3925 6.86409C27.4069 6.88605 27.4271 6.94255 27.4305 6.96992V10.1682H26.0974H25.1657C24.991 10.1168 24.8062 10.0891 24.6151 10.0891C24.4239 10.0891 24.2391 10.1168 24.0644 10.1682H23.1719L21.4425 10.1652V3.34953L24.754 3.34953ZM12.317 11.1282H22.8886C22.8159 11.2646 22.759 11.4105 22.7202 11.5637H12.4854C12.4466 11.4105 12.3896 11.2646 12.317 11.1282ZM7.14671 0.961953H20.4825V3.07848V10.1576H12.0651V10.1682H11.1412C10.9665 10.1168 10.7817 10.0891 10.5906 10.0891C10.3994 10.0891 10.2147 10.1168 10.0399 10.1682H9.11599V10.1576H7.14671V0.961953ZM5.87248 11.4415V11.2504C5.89898 11.2102 6.02279 11.1282 6.21949 11.1282H8.8641C8.79148 11.2646 8.73451 11.4105 8.6957 11.5637H6.21949C6.02277 11.5637 5.89896 11.4817 5.87248 11.4415ZM10.5906 13.0382C10.0422 13.0382 9.59599 12.5921 9.59599 12.0437C9.59599 11.4953 10.0422 11.0491 10.5906 11.0491C10.7265 11.0491 10.8561 11.0766 10.9742 11.1262V11.1282H10.9791C11.335 11.2798 11.5851 11.6331 11.5851 12.0437C11.5851 12.5921 11.139 13.0382 10.5906 13.0382ZM24.6151 13.0382C24.0666 13.0382 23.6204 12.5921 23.6204 12.0437C23.6204 11.4953 24.0666 11.0491 24.6151 11.0491C25.1635 11.0491 25.6096 11.4953 25.6096 12.0437C25.6096 12.5921 25.1635 13.0382 24.6151 13.0382ZM28.7047 11.4415C28.6782 11.4817 28.5544 11.5637 28.3577 11.5637H26.5099C26.4711 11.4105 26.4141 11.2646 26.3415 11.1282H27.6477C27.6562 11.1283 27.6657 11.1284 27.6763 11.1284C27.6839 11.1284 27.692 11.1284 27.7006 11.1282H28.3577C28.5544 11.1282 28.6782 11.2102 28.7047 11.2504L28.7047 11.4415Z" fill="#009245"/>
</svg>
