<svg width="20" height="20" viewBox="0 0 20 20" fill="none" xmlns="http://www.w3.org/2000/svg">
<g clip-path="url(#clip0_418_1441)">
<path d="M2.91667 20.0001H15.4167C16.1914 19.9979 16.9336 19.6884 17.4805 19.1395C18.0273 18.5907 18.334 17.8473 18.3333 17.0726V10.7917C18.3333 10.5707 18.2455 10.3588 18.0893 10.2025C17.933 10.0462 17.721 9.95842 17.5 9.95842C17.279 9.95842 17.067 10.0462 16.9107 10.2025C16.7545 10.3588 16.6667 10.5707 16.6667 10.7917V17.0726C16.6678 17.4054 16.5368 17.7251 16.3024 17.9615C16.0681 18.1979 15.7495 18.3317 15.4167 18.3334H2.91667C2.58381 18.3317 2.26525 18.1979 2.0309 17.9615C1.79655 17.7251 1.66556 17.4054 1.66667 17.0726V4.59425C1.66556 4.26139 1.79655 3.94169 2.0309 3.70531C2.26525 3.46893 2.58381 3.33518 2.91667 3.33341H9.16667C9.38768 3.33341 9.59964 3.24562 9.75592 3.08934C9.9122 2.93306 10 2.7211 10 2.50008C10 2.27907 9.9122 2.06711 9.75592 1.91083C9.59964 1.75455 9.38768 1.66675 9.16667 1.66675H2.91667C2.14192 1.66896 1.3997 1.97844 0.852882 2.52729C0.306068 3.07613 -0.000664243 3.8195 1.08009e-06 4.59425V17.0726C-0.000664243 17.8473 0.306068 18.5907 0.852882 19.1395C1.3997 19.6884 2.14192 19.9979 2.91667 20.0001Z" fill="#35363B"/>
<path d="M7.87911 8.78666L7.22161 11.7983C7.19185 11.9349 7.19694 12.0768 7.2364 12.211C7.27587 12.3451 7.34844 12.4671 7.44745 12.5658C7.54781 12.6621 7.6699 12.7327 7.80336 12.7717C7.93682 12.8107 8.07772 12.817 8.21411 12.79L11.2191 12.1308C11.3751 12.0966 11.518 12.0182 11.6308 11.905L19.2258 4.31C19.458 4.07785 19.6422 3.80223 19.7678 3.49889C19.8935 3.19555 19.9582 2.87042 19.9582 2.54208C19.9582 2.21374 19.8935 1.88862 19.7678 1.58528C19.6422 1.28193 19.458 1.00632 19.2258 0.774165C18.7498 0.319278 18.1167 0.0654297 17.4583 0.0654297C16.7999 0.0654297 16.1668 0.319278 15.6908 0.774165L8.10745 8.37666C7.99363 8.48864 7.91438 8.63095 7.87911 8.78666ZM16.8691 1.95333C17.0277 1.80145 17.2387 1.71666 17.4583 1.71666C17.6778 1.71666 17.8889 1.80145 18.0474 1.95333C18.2016 2.11052 18.288 2.32191 18.288 2.54208C18.288 2.76225 18.2016 2.97364 18.0474 3.13083L17.4583 3.72L16.2799 2.54166L16.8691 1.95333ZM9.45245 9.38167L15.0974 3.7225L16.2641 4.895L10.6166 10.5558L9.12078 10.8842L9.45245 9.38167Z" fill="#35363B"/>
</g>
<defs>
<clipPath id="clip0_418_1441">
<rect width="20" height="20" fill="white"/>
</clipPath>
</defs>
</svg>
