<svg width="14" height="18" viewBox="0 0 14 18" fill="none" xmlns="http://www.w3.org/2000/svg">
<path d="M7 18C5.05 18 3.39583 17.3208 2.0375 15.9625C0.679167 14.6042 0 12.95 0 11C0 9.71667 0.2125 8.425 0.6375 7.125C1.0625 5.825 1.6125 4.64583 2.2875 3.5875C2.9625 2.52917 3.71667 1.66667 4.55 1C5.38333 0.333333 6.2 0 7 0C7.81667 0 8.6375 0.333333 9.4625 1C10.2875 1.66667 11.0375 2.52917 11.7125 3.5875C12.3875 4.64583 12.9375 5.825 13.3625 7.125C13.7875 8.425 14 9.71667 14 11C14 12.95 13.3208 14.6042 11.9625 15.9625C10.6042 17.3208 8.95 18 7 18ZM7 17C8.66 17 10.075 16.415 11.245 15.245C12.415 14.075 13 12.66 13 11C13 9.9 12.8125 8.7625 12.4375 7.5875C12.0625 6.4125 11.5777 5.33887 10.9831 4.3666C10.3886 3.39433 9.73857 2.59017 9.03315 1.9541C8.32772 1.31803 7.65 1 7 1C6.35 1 5.67083 1.3125 4.9625 1.9375C4.25417 2.5625 3.60417 3.3625 3.0125 4.3375C2.42083 5.3125 1.9375 6.39167 1.5625 7.575C1.1875 8.75833 1 9.9 1 11C1 12.66 1.585 14.075 2.755 15.245C3.925 16.415 5.34 17 7 17ZM7.625 14.975C7.76667 14.975 7.88542 14.9271 7.98125 14.8313C8.07708 14.7354 8.125 14.6167 8.125 14.475C8.125 14.3333 8.07708 14.2146 7.98125 14.1188C7.88542 14.0229 7.76667 13.975 7.625 13.975C6.65278 13.975 5.82639 13.6347 5.14583 12.9542C4.46528 12.2736 4.125 11.4472 4.125 10.475C4.125 10.3333 4.07708 10.2146 3.98125 10.1188C3.88542 10.0229 3.76667 9.975 3.625 9.975C3.48333 9.975 3.36458 10.0229 3.26875 10.1188C3.17292 10.2146 3.125 10.3333 3.125 10.475C3.125 11.72 3.56375 12.7812 4.44125 13.6587C5.31875 14.5362 6.38 14.975 7.625 14.975Z" fill="#35363B"/>
</svg>
