<svg xmlns="http://www.w3.org/2000/svg" width="512" height="512" id="farm-house"><path fill="#FF636B" d="M422.04 253.45V448c0 5.52-4.48 10-10 10H99.96c-5.52 0-10-4.48-10-10V253.55c4.7-.69 11.4-3.1 17.29-10.55l56.7-81.96 92.11-51.39 92.24 51.39L405 243s7.49 9.58 16.66 10.37c0 0 .13.03.38.08z"></path><path fill="#DDDAD9" d="M89.96 412.04h81.88V458H99.96c-5.52 0-10-4.48-10-10v-35.96zm332.08 0V448c0 5.52-4.48 10-10 10h-71.88v-45.96h81.88z"></path><path fill="#6D533A" d="M171.84 337.81h168.32V458H171.84z"></path><path fill="#8F7154" d="M270.82 398.76 338.09 458h-30.26l-52.14-45.92L203.54 458h-30.26l67.27-59.24-68.71-60.59v-.36h29.77l54.08 47.62 54.07-47.62h30.33z"></path><path fill="#DDDAD9" d="M354.447 298.02H157.553c-5.523 0-10 4.477-10 10v19.793c0 5.523 4.477 10 10 10h196.895c5.523 0 10-4.477 10-10V308.02c-.001-5.523-4.478-10-10.001-10z"></path><ellipse cx="175.436" cy="243.866" fill="#F4C9E2" rx="15.223" ry="12.233"></ellipse><ellipse cx="336.565" cy="243.866" fill="#F4C9E2" rx="15.222" ry="12.233"></ellipse><path fill="#6D533A" d="m447.898 215.408-65.314-92.958a4.007 4.007 0 0 0-1.345-1.205l-123.184-67.75a4 4 0 0 0-3.855 0l-123.184 67.75a3.998 3.998 0 0 0-1.345 1.205l-65.368 93.037s-7.171 10.633-2.862 22.261c0 0 6.168 15.107 22.551 15.867 0 0 12.89 2.508 23.262-10.616l56.701-81.959 92.106-51.387 92.241 51.388 56.7 81.958s7.486 9.583 16.66 10.375c0 0 18.486 4.274 28.663-14.467-.002.001 5.637-9.258-2.427-23.499z"></path><path fill="#FFF" d="M422.04 444.4v3.6c0 5.52-4.48 10-10 10H99.96c-5.52 0-10-4.48-10-10V253.55c4.7-.69 11.4-3.1 17.29-10.55l7.75-11.2V415s0 11.17 16 15.09l291.04 14.31z" opacity=".35"></path><path fill="#FFF" d="M365.79 112.75 260.67 70s-5.03-3.33-8.52 0l-113.48 62-59.17 90.83s-7.26 19.52 23.21 24.87c-9.24 7.76-18.72 5.91-18.72 5.91-16.38-.76-22.55-15.86-22.55-15.86-4.31-11.63 2.86-22.26 2.86-22.26l65.37-93.04c.35-.5.81-.91 1.35-1.2L254.2 53.5c1.2-.67 2.65-.67 3.85 0l107.74 59.25z" opacity=".35"></path><path fill="#333" d="M214.923 236.842c5.28-1.619 7.765-8.006 5.654-12.963-4.067-9.553-12.813-15.746-23.077-15.746s-19.322 6.18-23.077 15.746c-2.019 5.141.513 10.944 5.654 12.963 5.14 2.018 10.944-.514 12.963-5.654.728-1.855 2.479-3.054 4.46-3.054s3.732 1.199 4.46 3.054c0 0 3.196 8.648 12.963 5.654zm95.117-5.654c.874-1.792 2.479-3.054 4.461-3.054s3.731 1.198 4.458 3.053c2.018 5.142 7.822 7.674 12.963 5.656s7.673-7.821 5.656-12.962c-3.754-9.566-12.813-15.747-23.077-15.747s-19.323 6.18-23.078 15.746c-2.019 5.141.513 10.944 5.654 12.963 0-.001 8.486 3.525 12.963-5.655zM266.25 253.866h-20.5c-5.523 0-10-4.477-10-10s4.477-10 10-10h20.5c5.523 0 10 4.477 10 10s-4.477 10-10 10z"></path></svg>