<svg width="24" height="23" viewBox="0 0 24 23" fill="none" xmlns="http://www.w3.org/2000/svg">
<path d="M23.74 11.07C23.9664 10.3717 24.0362 9.63217 23.9446 8.90385C23.8529 8.17553 23.6021 7.47633 23.2098 6.8559C22.8174 6.23546 22.2933 5.70902 21.6747 5.31395C21.056 4.91889 20.3579 4.66489 19.63 4.57001C19.7706 4.11998 20.0196 3.71135 20.355 3.38001C20.4019 3.33353 20.4391 3.27823 20.4644 3.2173C20.4898 3.15637 20.5029 3.09101 20.5029 3.02501C20.5029 2.959 20.4898 2.89365 20.4644 2.83272C20.4391 2.77179 20.4019 2.71649 20.355 2.67001C19.7 2.02001 18.81 3.67001 18.605 4.55001C17.861 4.60883 17.1398 4.83444 16.495 5.2101C15.8501 5.58577 15.2981 6.10184 14.88 6.72001C14.636 6.65038 14.3869 6.60022 14.135 6.57001C14.2719 6.11945 14.5194 5.71034 14.855 5.38001C14.9019 5.33353 14.9391 5.27823 14.9644 5.2173C14.9898 5.15637 15.0029 5.09101 15.0029 5.02501C15.0029 4.959 14.9898 4.89365 14.9644 4.83272C14.9391 4.77179 14.9019 4.71649 14.855 4.67001C14.205 4.02001 13.315 5.67001 13.105 6.54501C12.0217 6.62966 10.9961 7.06698 10.185 7.79001C9.77 6.65501 10.385 5.29001 8.795 3.88001C8.289 3.43458 7.66619 3.14313 7 3.04001V2.70501C7.00218 2.38606 7.12969 2.08076 7.355 1.85501C7.40186 1.80853 7.43906 1.75323 7.46445 1.6923C7.48983 1.63137 7.5029 1.56601 7.5029 1.50001C7.5029 1.434 7.48983 1.36865 7.46445 1.30772C7.43906 1.24679 7.40186 1.19149 7.355 1.14501C6.74 0.535009 6 1.82501 6 2.70501V3.03501C5.2478 3.1483 4.55232 3.50154 4.01714 4.04213C3.48196 4.58271 3.13573 5.28171 3.03 6.03501C2.935 6.79501 3.23 7.82001 2.32 8.69501C1.6618 9.34118 1.16062 10.1297 0.855 11H0.5C0.367392 11 0.240215 11.0527 0.146447 11.1465C0.0526784 11.2402 0 11.3674 0 11.5L0 14.5C0 14.555 0 15 0.63 15L2.585 21.245C2.74373 21.7535 3.0607 22.1979 3.48971 22.5136C3.91873 22.8293 4.43735 22.9997 4.97 23H19.03C19.5626 22.9997 20.0813 22.8293 20.5103 22.5136C20.9393 22.1979 21.2563 21.7535 21.415 21.245C23.58 14.315 23.31 15 23.5 15C23.6326 15 23.7598 14.9473 23.8536 14.8536C23.9473 14.7598 24 14.6326 24 14.5C24 11.25 24.09 11.265 23.74 11.07ZM1 12H23V14H1V12ZM18.5 5.53501V6.00001C18.5 6.13262 18.5527 6.25979 18.6464 6.35356C18.7402 6.44733 18.8674 6.50001 19 6.50001C19.1326 6.50001 19.2598 6.44733 19.3536 6.35356C19.4473 6.25979 19.5 6.13262 19.5 6.00001V5.53501C20.1067 5.61285 20.6874 5.82878 21.1975 6.16619C21.7077 6.5036 22.1336 6.9535 22.4427 7.4813C22.7517 8.00911 22.9356 8.60075 22.9803 9.21075C23.0249 9.82076 22.929 10.4329 22.7 11H15.3C15.071 10.4329 14.9751 9.82076 15.0197 9.21075C15.0644 8.60075 15.2483 8.00911 15.5573 7.4813C15.8664 6.9535 16.2923 6.5036 16.8025 6.16619C17.3126 5.82878 17.8933 5.61285 18.5 5.53501ZM13 7.53501V8.00001C13 8.13262 13.0527 8.25979 13.1464 8.35356C13.2402 8.44733 13.3674 8.50001 13.5 8.50001C13.6326 8.50001 13.7598 8.44733 13.8536 8.35356C13.9473 8.25979 14 8.13262 14 8.00001V7.53501C14.1279 7.54896 14.2548 7.57066 14.38 7.60001C13.9282 8.68013 13.8786 9.8864 14.24 11H9.535C9.6466 10.12 10.0475 9.30205 10.6748 8.6748C11.302 8.04756 12.12 7.64661 13 7.53501ZM3 9.41001C4.225 8.22001 3.93 6.70501 4 6.15501C4.06178 5.70908 4.24283 5.2881 4.52403 4.93653C4.80523 4.58496 5.17614 4.31585 5.5976 4.15761C6.01907 3.99937 6.47544 3.95787 6.91854 4.0375C7.36163 4.11713 7.775 4.31493 8.115 4.61001C9.475 5.79001 8.57 6.89501 9.43 8.57501C8.92071 9.28989 8.60858 10.1263 8.525 11H1.915C2.17027 10.4047 2.53876 9.86473 3 9.41001ZM20.46 20.95C20.3643 21.2544 20.174 21.5203 19.9169 21.7091C19.6597 21.8979 19.349 21.9998 19.03 22H4.97C4.65033 21.9995 4.33919 21.8968 4.08195 21.7071C3.82472 21.5173 3.63483 21.2503 3.54 20.945L1.68 15H22.32L20.46 20.95Z" fill="#35363B"/>
</svg>
