<svg width="30" height="30" viewBox="0 0 30 30" fill="none" xmlns="http://www.w3.org/2000/svg">
<path d="M25.4133 13.2787C25.4133 13.2787 25.7627 3.26783 15.0092 2.49609C15.0092 2.49609 4.9495 2.49609 4.55089 13.3055C3.76562 13.886 3.23511 14.8208 3.23511 15.8061V18.3893C3.23511 19.815 4.3321 21.144 5.73308 21.4138L8.39101 21.9245C8.39101 21.9245 9.58556 22.313 9.72706 21.1378V12.888C9.72706 9.9334 12.1306 7.52988 15.0852 7.52988C18.0394 7.52988 20.4429 9.9334 20.4429 12.888V19.3228C20.4429 20.803 19.8307 22.1847 18.782 23.1858C18.2837 22.4555 17.4456 21.9738 16.4963 21.9738H13.5035C11.979 21.9738 10.7383 23.214 10.7383 24.739C10.7383 26.2639 11.979 27.5042 13.5035 27.5042H16.4963C17.8807 27.5042 19.0203 26.4784 19.2202 25.1486C20.3861 24.3214 21.266 23.1912 21.7648 21.8948L24.2672 21.414C25.6678 21.1441 26.7648 19.8151 26.7648 18.3895V15.8063C26.7647 14.8059 26.2189 13.8571 25.4133 13.2787ZM16.4963 25.704H13.5035C12.9713 25.704 12.5384 25.2707 12.5384 24.7389C12.5384 24.2072 12.9713 23.7738 13.5035 23.7738H16.4963C17.0285 23.7738 17.4614 24.2072 17.4614 24.7389C17.4614 25.2707 17.0285 25.704 16.4963 25.704ZM7.92694 20.0013L6.07274 19.6454C5.51991 19.5391 5.03517 18.9519 5.03517 18.3894V15.8061C5.03517 15.2494 5.53228 14.6416 6.07808 14.5308L7.92694 14.1564V20.0013ZM15.0852 5.72982C11.3321 5.72982 8.25044 8.63473 7.95595 12.3136L6.39272 12.6305C6.5514 8.00895 10.3498 4.29627 15.0092 4.29627C19.6944 4.29627 23.5108 8.04984 23.6321 12.6357L22.2157 12.3488C21.9379 8.65359 18.8502 5.72982 15.0852 5.72982ZM24.9646 18.3894C24.9646 18.9519 24.4799 19.5391 23.9274 19.6454L22.2021 19.9768C22.2218 19.7597 22.2429 19.5435 22.2429 19.3228V14.1906L23.9217 14.5308C24.4675 14.6416 24.9646 15.2494 24.9646 15.8061V18.3894ZM14.9999 18.2997C15.6082 18.2997 16.1004 18.7945 16.1004 19.4002C16.1004 20.0085 15.6082 20.5015 14.9999 20.5015C14.3916 20.5015 13.8994 20.0085 13.8994 19.4002C13.8994 18.7945 14.3916 18.2997 14.9999 18.2997ZM15.6995 16.3642V16.8424C15.6995 17.3399 15.2966 17.7425 14.7995 17.7425C14.3025 17.7425 13.8994 17.3399 13.8994 16.8424V15.8017C13.8994 15.4347 14.1222 15.1047 14.4624 14.9671C14.8724 14.7984 15.9993 14.1752 16.2538 13.3454C16.3738 12.9552 16.2845 12.5306 15.9816 12.0499C15.8735 11.9466 15.4886 11.5665 14.9757 11.61C14.5006 11.613 13.9934 11.9137 13.4675 12.5039C13.1374 12.8748 12.5682 12.9082 12.1968 12.5773C11.8255 12.2467 11.7925 11.6781 12.1235 11.3068C13.0135 10.3069 13.9636 9.77473 15.0012 9.80988C15.0012 9.80988 16.5082 9.8349 17.4416 10.9925C17.4416 10.9925 18.8123 12.7983 17.5625 14.7337C17.5625 14.7337 16.8681 15.7596 15.6995 16.3642Z" fill="#009245"/>
</svg>
