<svg width="24" height="24" viewBox="0 0 24 24" fill="none" xmlns="http://www.w3.org/2000/svg">
<path d="M6.5 17.5H20.5V13.425H16.9C16.6 14.0917 16.1458 14.6208 15.5375 15.0125C14.9292 15.4042 14.25 15.6 13.5 15.6C12.75 15.6 12.075 15.4042 11.475 15.0125C10.875 14.6208 10.4167 14.0917 10.1 13.425H6.5V17.5ZM13.5 14.1C14.1333 14.1 14.6752 13.887 15.1255 13.4611C15.5758 13.0352 15.801 12.5231 15.801 11.925H20.5V3.5H6.5V11.925H11.2C11.2 12.5231 11.4252 13.0352 11.8756 13.4611C12.326 13.887 12.8675 14.1 13.5 14.1ZM6.5 19C6.1 19 5.75 18.85 5.45 18.55C5.15 18.25 5 17.9 5 17.5V3.5C5 3.1 5.15 2.75 5.45 2.45C5.75 2.15 6.1 2 6.5 2H20.5C20.9 2 21.25 2.15 21.55 2.45C21.85 2.75 22 3.1 22 3.5V17.5C22 17.9 21.85 18.25 21.55 18.55C21.25 18.85 20.9 19 20.5 19H6.5ZM3.5 22C3.1 22 2.75 21.85 2.45 21.55C2.15 21.25 2 20.9 2 20.5V5H3.5V20.5H19V22H3.5Z" fill="#35363B"/>
</svg>
