<svg width="18" height="18" viewBox="0 0 18 18" fill="none" xmlns="http://www.w3.org/2000/svg">
<path d="M9.00005 1.125C6.2708 1.125 4.05005 3.34575 4.05005 6.075C4.05005 10.4585 8.45127 16.4408 8.6387 16.693C8.6805 16.7495 8.73497 16.7954 8.79773 16.827C8.86048 16.8586 8.92977 16.8751 9.00005 16.8751C9.07032 16.8751 9.13962 16.8586 9.20237 16.827C9.26513 16.7954 9.31959 16.7495 9.3614 16.693C9.54882 16.4408 13.95 10.4585 13.95 6.075C13.95 3.34575 11.7293 1.125 9.00005 1.125ZM9.00005 15.6452C7.9457 14.1122 4.95005 9.459 4.95005 6.075C4.95005 3.84188 6.76692 2.025 9.00005 2.025C11.2332 2.025 13.05 3.84188 13.05 6.075C13.05 9.459 10.0544 14.112 9.00005 15.6452Z" fill="#009245"/>
<path d="M9.00005 3.15002C7.51122 3.15002 6.30005 4.3612 6.30005 5.85002C6.30005 7.33885 7.51122 8.55002 9.00005 8.55002C10.4889 8.55002 11.7 7.33885 11.7 5.85002C11.7 4.3612 10.4889 3.15002 9.00005 3.15002ZM9.00005 7.65002C8.00757 7.65002 7.20005 6.8425 7.20005 5.85002C7.20005 4.85755 8.00757 4.05002 9.00005 4.05002C9.99252 4.05002 10.8 4.85755 10.8 5.85002C10.8 6.8425 9.99252 7.65002 9.00005 7.65002Z" fill="#009245"/>
</svg>
