<svg width="24" height="24" viewBox="0 0 24 24" fill="none" xmlns="http://www.w3.org/2000/svg">
<path d="M8.75 13.25H9.85L13.5 9.575L12.425 8.5L8.75 12.15V13.25ZM14.325 8.75L15 8.075C15.05 8.025 15.075 7.9625 15.075 7.8875C15.075 7.8125 15.05 7.75 15 7.7L14.3 7C14.25 6.95 14.1875 6.925 14.1125 6.925C14.0375 6.925 13.975 6.95 13.925 7L13.25 7.675L14.325 8.75ZM12 20.025C14.2167 18.0083 15.8542 16.1792 16.9125 14.5375C17.9708 12.8958 18.5 11.45 18.5 10.2C18.5 8.23333 17.8708 6.625 16.6125 5.375C15.3542 4.125 13.8167 3.5 12 3.5C10.1833 3.5 8.64583 4.125 7.3875 5.375C6.12917 6.625 5.5 8.23333 5.5 10.2C5.5 11.45 6.04167 12.8958 7.125 14.5375C8.20833 16.1792 9.83333 18.0083 12 20.025ZM12 22C9.31667 19.7167 7.3125 17.5958 5.9875 15.6375C4.6625 13.6792 4 11.8667 4 10.2C4 7.7 4.80417 5.70833 6.4125 4.225C8.02083 2.74167 9.88333 2 12 2C14.1167 2 15.9792 2.74167 17.5875 4.225C19.1958 5.70833 20 7.7 20 10.2C20 11.8667 19.3375 13.6792 18.0125 15.6375C16.6875 17.5958 14.6833 19.7167 12 22Z" fill="#009245"/>
</svg>
