<svg width="22" height="28" viewBox="0 0 22 28" fill="none" xmlns="http://www.w3.org/2000/svg">
<path d="M10.9999 24.7001C13.9555 22.0112 16.1388 19.5723 17.5499 17.3834C18.961 15.1945 19.6666 13.2667 19.6666 11.6001C19.6666 8.98253 18.83 6.83925 17.1569 5.17025C15.4837 3.50125 13.4314 2.66675 10.9999 2.66675C8.56843 2.66675 6.51612 3.50125 4.84299 5.17025C3.16983 6.83925 2.33325 8.98253 2.33325 11.6001C2.33325 13.2667 3.05547 15.1945 4.49992 17.3834C5.94436 19.5723 8.11103 22.0112 10.9999 24.7001ZM10.9999 27.3334C7.42214 24.289 4.74992 21.4612 2.98325 18.8501C1.21659 16.239 0.333252 13.8223 0.333252 11.6001C0.333252 8.26675 1.40547 5.61119 3.54992 3.63341C5.69436 1.65564 8.1777 0.666748 10.9999 0.666748C13.8221 0.666748 16.3055 1.65564 18.4499 3.63341C20.5944 5.61119 21.6666 8.26675 21.6666 11.6001C21.6666 13.8223 20.7833 16.239 19.0166 18.8501C17.2499 21.4612 14.5777 24.289 10.9999 27.3334ZM7.33325 15.3334H9.33325V11.3334H12.6666V15.3334H14.6666V9.16675L10.9999 6.73341L7.33325 9.16675V15.3334Z" fill="#35363B"/>
</svg>
