<svg width="17" height="18" viewBox="0 0 17 18" fill="none" xmlns="http://www.w3.org/2000/svg">
<path d="M8.0833 17.4999C14 17.4999 16 14.5 16 12.5C16 10.5 15.3998 8.7427 12.5 7.5C9.3411 6.14631 11.1822 1.50531 8.0833 1.06258C3.70072 0.436459 0.5 4.57297 0.5 9C0.5 13.427 3 17.4999 8.0833 17.4999Z" stroke="#35363B" stroke-linecap="round" stroke-linejoin="round"/>
<path d="M7.99994 15.5C11.4516 15.5 13.9999 14.271 13.9999 12C13.9999 9.729 12.4999 10.6696 9.99994 8.5C8.01454 6.77703 8.85404 3.27066 7.49994 2.99989C4.99992 2.50002 2.60913 5.57273 2.60913 9.0245C2.60913 12.4762 4.54817 15.5 7.99994 15.5Z" stroke="#35363B" stroke-linecap="round" stroke-linejoin="round"/>
<path d="M10 13C10.5523 13 11 12.5523 11 12C11 11.4477 10.5523 11 10 11C9.44772 11 9 11.4477 9 12C9 12.5523 9.44772 13 10 13Z" stroke="#35363B"/>
</svg>
