<svg width="24" height="24" viewBox="0 0 24 24" fill="none" xmlns="http://www.w3.org/2000/svg">
<path d="M3.09998 9.825C3.09998 8.475 3.38331 7.19583 3.94998 5.9875C4.51664 4.77917 5.32498 3.75 6.37498 2.9L7.39998 4.025C6.51664 4.74167 5.82914 5.60417 5.33748 6.6125C4.84581 7.62083 4.59998 8.69167 4.59998 9.825H3.09998ZM19.425 9.825C19.425 8.69167 19.1916 7.62083 18.725 6.6125C18.2583 5.60417 17.5833 4.74167 16.7 4.025L17.725 2.9C18.7583 3.76667 19.55 4.8 20.1 6C20.65 7.2 20.925 8.475 20.925 9.825H19.425ZM3.99998 19V17.5H6.09998V9.85C6.09998 8.45 6.51248 7.20417 7.33748 6.1125C8.16248 5.02083 9.24998 4.33333 10.6 4.05V3.325C10.6 2.94167 10.7375 2.625 11.0125 2.375C11.2875 2.125 11.6166 2 12 2C12.3833 2 12.7125 2.125 12.9875 2.375C13.2625 2.625 13.4 2.94167 13.4 3.325V4.05C14.75 4.33333 15.8416 5.02083 16.675 6.1125C17.5083 7.20417 17.925 8.45 17.925 9.85V17.5H20V19H3.99998ZM12 22C11.4666 22 11 21.8042 10.6 21.4125C10.2 21.0208 9.99998 20.55 9.99998 20H14C14 20.55 13.8041 21.0208 13.4125 21.4125C13.0208 21.8042 12.55 22 12 22ZM7.59998 17.5H16.425V9.85C16.425 8.61667 16 7.56667 15.15 6.7C14.3 5.83333 13.2583 5.4 12.025 5.4C10.7916 5.4 9.74581 5.83333 8.88748 6.7C8.02914 7.56667 7.59998 8.61667 7.59998 9.85V17.5Z" fill="#35363B"/>
</svg>
