<svg width="24" height="24" viewBox="0 0 24 24" fill="none" xmlns="http://www.w3.org/2000/svg">
<g clip-path="url(#clip0_170_1077)">
<path d="M22.125 3H4.875C4.3779 3.00058 3.90132 3.19831 3.54982 3.54982C3.19831 3.90132 3.00058 4.3779 3 4.875C3 5.07391 3.07902 5.26468 3.21967 5.40533C3.36032 5.54598 3.55109 5.625 3.75 5.625C3.94891 5.625 4.13968 5.54598 4.28033 5.40533C4.42098 5.26468 4.5 5.07391 4.5 4.875C4.5001 4.77557 4.53964 4.68025 4.60994 4.60994C4.68025 4.53964 4.77557 4.5001 4.875 4.5H22.125C22.2244 4.5001 22.3197 4.53964 22.3901 4.60994C22.4604 4.68025 22.4999 4.77557 22.5 4.875V7.5H20.9468C20.8641 7.17881 20.6772 6.89412 20.4154 6.69053C20.1536 6.48695 19.8316 6.37597 19.5 6.375H1.5C1.10231 6.37542 0.721021 6.5336 0.439808 6.81481C0.158595 7.09602 0.000423861 7.47731 0 7.875L0 19.5C0.000423861 19.8977 0.158595 20.279 0.439808 20.5602C0.721021 20.8414 1.10231 20.9996 1.5 21H19.5C19.8977 20.9996 20.279 20.8414 20.5602 20.5602C20.8414 20.279 20.9996 19.8977 21 19.5V17.625H22.125C22.6221 17.6244 23.0987 17.4267 23.4502 17.0752C23.8017 16.7237 23.9994 16.2471 24 15.75V4.875C23.9994 4.3779 23.8017 3.90132 23.4502 3.54982C23.0987 3.19831 22.6221 3.00058 22.125 3ZM22.5 11.625H21V9H22.5V11.625ZM1.5 19.5V7.875H19.5L19.5011 19.5H1.5ZM22.125 16.125H21V13.125H22.5V15.75C22.4999 15.8494 22.4604 15.9448 22.3901 16.0151C22.3197 16.0854 22.2244 16.1249 22.125 16.125Z" fill="white"/>
<path d="M3.75 15H7.34985C7.54876 15 7.73952 14.921 7.88017 14.7803C8.02082 14.6397 8.09984 14.4489 8.09985 14.25V11.25C8.09984 11.0511 8.02082 10.8603 7.88017 10.7197C7.73952 10.579 7.54876 10.5 7.34985 10.5H3.75C3.55109 10.5 3.36033 10.579 3.21968 10.7197C3.07903 10.8603 3.00001 11.0511 3 11.25V14.25C3.00001 14.4489 3.07903 14.6397 3.21968 14.7803C3.36033 14.921 3.55109 15 3.75 15ZM4.5 12H6.59985V13.5H4.5V12ZM12.375 16.5H3.75C3.55109 16.5 3.36032 16.579 3.21967 16.7197C3.07902 16.8603 3 17.0511 3 17.25C3 17.4489 3.07902 17.6397 3.21967 17.7803C3.36032 17.921 3.55109 18 3.75 18H12.375C12.5739 18 12.7647 17.921 12.9053 17.7803C13.046 17.6397 13.125 17.4489 13.125 17.25C13.125 17.0511 13.046 16.8603 12.9053 16.7197C12.7647 16.579 12.5739 16.5 12.375 16.5Z" fill="white"/>
<path d="M17.25 10.875C17.6642 10.875 18 10.5392 18 10.125C18 9.71079 17.6642 9.375 17.25 9.375C16.8358 9.375 16.5 9.71079 16.5 10.125C16.5 10.5392 16.8358 10.875 17.25 10.875Z" fill="white"/>
<path d="M17.25 16.5H15.375C15.1761 16.5 14.9853 16.579 14.8447 16.7197C14.704 16.8603 14.625 17.0511 14.625 17.25C14.625 17.4489 14.704 17.6397 14.8447 17.7803C14.9853 17.921 15.1761 18 15.375 18H17.25C17.4489 18 17.6397 17.921 17.7803 17.7803C17.921 17.6397 18 17.4489 18 17.25C18 17.0511 17.921 16.8603 17.7803 16.7197C17.6397 16.579 17.4489 16.5 17.25 16.5Z" fill="white"/>
</g>
<defs>
<clipPath id="clip0_170_1077">
<rect width="24" height="24" fill="white"/>
</clipPath>
</defs>
</svg>
