<svg width="16" height="22" viewBox="0 0 16 22" fill="none" xmlns="http://www.w3.org/2000/svg">
<path d="M10.0162 2.12305C6.02168 2.12335 2.76446 5.37616 2.76416 9.37072C2.76406 11.8168 4.18034 13.5697 4.87343 14.9559C4.88207 14.9728 4.89135 14.9894 4.90126 15.0057L8.57636 21.1328C8.61184 21.0947 8.64326 21.0529 8.6701 21.0083L13.1713 13.5058C13.1812 13.4895 13.1905 13.4729 13.1992 13.456C13.9019 12.0505 15.2431 10.2649 15.2469 7.87079C15.2468 5.94596 14.4871 4.19737 13.2578 2.89791C12.2809 2.40619 11.182 2.12313 10.0162 2.12305Z" fill="#70E2A6"/>
<path d="M8.00338 0.625488C4.00878 0.625789 0.751521 3.87864 0.751221 7.87324C0.751121 10.3194 2.16742 12.0723 2.86051 13.4585C2.86914 13.4754 2.87839 13.492 2.88828 13.5083L7.38811 21.0109C7.45485 21.1216 7.54905 21.2131 7.66159 21.2767C7.77412 21.3403 7.90117 21.3736 8.03042 21.3736C8.15966 21.3736 8.28671 21.3403 8.39924 21.2767C8.51178 21.2131 8.60598 21.1216 8.67272 21.0109L13.174 13.5083C13.1839 13.492 13.1932 13.4754 13.2018 13.4585C13.9045 12.053 15.2458 10.2674 15.2496 7.87324C15.2493 3.87864 11.998 0.625789 8.00338 0.625488ZM8.00338 2.12688C11.1874 2.12712 13.7495 4.68919 13.7497 7.87324C13.7466 9.6858 12.6583 11.1871 11.8616 12.7773L8.03119 19.1667L4.19932 12.7891L4.19337 12.7774C3.38686 11.1683 2.25098 9.72075 2.25106 7.87335C2.2513 4.68929 4.81933 2.12712 8.00338 2.12688ZM8.00338 4.09701C5.92584 4.09701 4.22129 5.7957 4.22129 7.87324C4.22129 9.95078 5.92584 11.648 8.00338 11.648C10.0809 11.648 11.7781 9.95078 11.7781 7.87324C11.7781 5.7957 10.0809 4.09701 8.00338 4.09701ZM8.00338 5.59695C9.27029 5.59695 10.2782 6.60633 10.2782 7.87324C10.2782 9.14015 9.2703 10.1539 8.00338 10.1539C6.73647 10.1539 5.7227 9.14015 5.72271 7.87324C5.72271 6.60633 6.73647 5.59695 8.00338 5.59695Z" fill="#009245"/>
</svg>
