<svg width="36" height="36" viewBox="0 0 36 36" fill="none" xmlns="http://www.w3.org/2000/svg">
<path d="M32.94 25.6162C33.9862 26.6681 34.4081 27.9393 33.885 28.4625C33.3619 28.9856 32.0906 28.5637 31.0387 27.5175C31.0251 27.4976 31.0101 27.4788 30.9937 27.4612C30.5944 27.5681 30.1106 27.6918 29.5594 27.8043C29.5594 27.8043 29.1094 27.8943 28.5694 27.9787C28.4287 28.0068 28.2769 28.0293 28.125 28.0462C27.2587 28.1643 24.5644 28.4175 23.625 28.125C19.9519 26.9831 19.035 10.0575 24.75 7.87496C25.838 7.52458 27.0157 7.57647 28.0687 8.02121C28.1235 8.02785 28.178 8.03723 28.2319 8.04933C29.1665 8.19477 30.0895 8.4072 30.9937 8.68496C31.0106 8.66808 31.0219 8.64558 31.0387 8.62871C32.0906 7.58246 33.3619 7.15496 33.885 7.67808C34.4081 8.20121 33.9862 9.47808 32.94 10.5243C32.9231 10.5412 32.9006 10.5581 32.8837 10.575C33.2579 12.0867 33.5155 13.625 33.6544 15.1762L33.7387 16.335C33.8843 19.4385 33.5966 22.5471 32.8837 25.5712C32.9006 25.5881 32.9231 25.5993 32.94 25.6162Z" fill="#9B643E"/>
<path d="M29.8125 18.5626C29.8345 21.7436 29.4162 24.9124 28.5694 27.9788C28.4287 28.0069 28.2769 28.0294 28.125 28.0463C27.2587 28.1644 24.5644 28.4176 23.625 28.1251C19.9519 26.9832 19.035 10.0576 24.75 7.87506C25.838 7.52467 27.0157 7.57657 28.0687 8.02131C28.1235 8.02794 28.178 8.03733 28.2319 8.04943C29.3112 11.4482 29.8447 14.9967 29.8125 18.5626Z" fill="#875838"/>
<path d="M12.9376 27C11.3933 27.9194 9.58291 28.2882 7.80198 28.0462C7.7401 28.035 7.6726 28.0294 7.61073 28.0181C6.71339 27.8865 5.82488 27.7006 4.9501 27.4612C4.93185 27.4787 4.91493 27.4975 4.89948 27.5175C3.85323 28.5637 2.58198 28.9856 2.05323 28.4625C1.52448 27.9394 1.9576 26.6681 3.00385 25.6162C3.02073 25.5994 3.04323 25.5881 3.0601 25.5712C2.61404 23.6491 2.33736 21.6917 2.23323 19.7212L2.19948 18.5625C2.15719 15.8747 2.44624 13.192 3.0601 10.575C3.04323 10.5581 3.02073 10.5412 3.00385 10.5244C1.9576 9.47811 1.5301 8.20686 2.05323 7.67811C2.57635 7.14936 3.85323 7.58248 4.89948 8.62873C4.91635 8.64561 4.93323 8.66811 4.9501 8.68498C5.31573 8.57248 5.82198 8.42623 6.44073 8.29123C6.44073 8.29123 7.00323 8.16186 7.5826 8.06623L7.92573 8.01561C9.83605 7.88934 11.7486 8.22707 13.5001 8.99998C17.9101 11.4019 18.5907 23.4112 12.9376 27Z" fill="#9B643E"/>
<path d="M12.9375 27C11.3932 27.9194 9.58285 28.2882 7.80191 28.0462C7.74004 28.035 7.67254 28.0293 7.61066 28.0181C6.64102 24.768 6.16137 21.3915 6.18754 18C6.16201 14.6382 6.63206 11.291 7.58254 8.06621L7.92566 8.01559C9.83599 7.88932 11.7485 8.22705 13.5 8.99996C17.91 11.4018 18.5907 23.4112 12.9375 27Z" fill="#875838"/>
<path d="M27.63 27.495C28.9462 28.8112 29.4806 30.4143 28.8225 31.0725C28.1643 31.7306 26.5612 31.1962 25.245 29.88C25.2225 29.8575 25.2056 29.835 25.1831 29.8125C20.4833 31.1175 15.5167 31.1175 10.8168 29.8125C10.7943 29.835 10.7775 29.8575 10.755 29.88C9.43872 31.1962 7.83559 31.7306 7.17747 31.0725C6.51934 30.4143 7.05372 28.8112 8.36997 27.495C8.39247 27.4725 8.41497 27.4556 8.43747 27.4331C8.36434 27.1125 8.29684 26.7975 8.23497 26.4768C6.99112 20.5639 7.06024 14.4501 8.43747 8.56684C8.41497 8.54434 8.39247 8.52747 8.36997 8.50497C7.05372 7.18872 6.51934 5.58559 7.17747 4.92747C7.83559 4.26934 9.43872 4.80372 10.755 6.11997C10.7775 6.14247 10.7943 6.16497 10.8168 6.18747C15.4956 4.73621 20.5043 4.73621 25.1831 6.18747C25.2056 6.16497 25.2225 6.14247 25.245 6.11997C26.5612 4.80372 28.1643 4.26934 28.8225 4.92747C29.4806 5.58559 28.9462 7.18872 27.63 8.50497C27.6075 8.52747 27.585 8.54434 27.5625 8.56684C27.72 9.19122 27.855 9.82122 27.9787 10.4512C29.0434 16.0775 28.9015 21.8657 27.5625 27.4331C27.585 27.4556 27.6075 27.4725 27.63 27.495Z" fill="#A5683D"/>
<path d="M27.5625 8.56684C27.72 9.19122 27.855 9.82122 27.9787 10.4512C26.002 13.8261 23.4666 16.8408 20.4806 19.3668C16.8479 22.4376 12.7027 24.8443 8.23497 26.4768C6.99112 20.5639 7.06024 14.4501 8.43747 8.56684C8.41497 8.54434 8.39247 8.52747 8.36997 8.50497C7.05372 7.18872 6.51934 5.58559 7.17747 4.92747C7.83559 4.26934 9.43872 4.80372 10.755 6.11997C10.7775 6.14247 10.7943 6.16497 10.8168 6.18747C15.4956 4.73621 20.5043 4.73621 25.1831 6.18747C25.2056 6.16497 25.2225 6.14247 25.245 6.11997C26.5612 4.80372 28.1643 4.26934 28.8225 4.92747C29.4806 5.58559 28.9462 7.18872 27.63 8.50497C27.6075 8.52747 27.585 8.54434 27.5625 8.56684Z" fill="#AF7146"/>
<path d="M18 16.875C17.8508 16.875 17.7077 16.8157 17.6023 16.7102C17.4968 16.6048 17.4375 16.4617 17.4375 16.3125V10.6875C17.4375 10.2399 17.2597 9.81072 16.9432 9.49426C16.6268 9.17779 16.1976 9 15.75 9C15.6008 9 15.4577 8.94074 15.3523 8.83525C15.2468 8.72976 15.1875 8.58668 15.1875 8.4375C15.1875 8.28832 15.2468 8.14524 15.3523 8.03975C15.4577 7.93426 15.6008 7.875 15.75 7.875C16.4956 7.87589 17.2105 8.1725 17.7378 8.69975C18.265 9.227 18.5616 9.94185 18.5625 10.6875V16.3125C18.5625 16.4617 18.5032 16.6048 18.3977 16.7102C18.2923 16.8157 18.1492 16.875 18 16.875Z" fill="#009245"/>
<path d="M18 11.25C17.8508 11.25 17.7077 11.1907 17.6023 11.0852C17.4968 10.9798 17.4375 10.8367 17.4375 10.6875V9.5625C17.4384 8.81685 17.735 8.102 18.2622 7.57475C18.7895 7.0475 19.5044 6.75089 20.25 6.75C20.3992 6.75 20.5423 6.80926 20.6477 6.91475C20.7532 7.02024 20.8125 7.16332 20.8125 7.3125C20.8125 7.46168 20.7532 7.60476 20.6477 7.71025C20.5423 7.81574 20.3992 7.875 20.25 7.875C19.8024 7.875 19.3732 8.05279 19.0568 8.36926C18.7403 8.68572 18.5625 9.11495 18.5625 9.5625V10.6875C18.5625 10.8367 18.5032 10.9798 18.3977 11.0852C18.2923 11.1907 18.1492 11.25 18 11.25Z" fill="#009245"/>
<path d="M24.75 18.5625H11.25V25.3125H24.75V18.5625Z" fill="#E6E6E6"/>
<path d="M17.4375 20.25H12.9375V21.375H17.4375V20.25Z" fill="#808080"/>
<path d="M23.0625 22.5H16.3125V23.625H23.0625V22.5Z" fill="#808080"/>
<path d="M15.1875 22.5H12.9375V23.625H15.1875V22.5Z" fill="#808080"/>
<path d="M23.0625 20.25H18.5625V21.375H23.0625V20.25Z" fill="#808080"/>
<path d="M22.5 10.6875C22.4987 11.5822 22.1427 12.4399 21.51 13.0725C20.8774 13.7052 20.0197 14.0612 19.125 14.0625H18C17.9996 13.8739 18.0165 13.6856 18.0506 13.5C18.161 12.8078 18.4902 12.169 18.99 11.6775C19.3021 11.3626 19.6736 11.1129 20.0831 10.943C20.4925 10.773 20.9317 10.6862 21.375 10.6875H22.5Z" fill="#13A555"/>
<path d="M16.875 14.0625H18C18 13.1674 17.6444 12.3089 17.0115 11.676C16.3786 11.0431 15.5201 10.6875 14.625 10.6875H13.5C13.5 11.5826 13.8556 12.4411 14.4885 13.074C15.1214 13.7069 15.9799 14.0625 16.875 14.0625Z" fill="#13A555"/>
<path d="M14.113 10.6875C14.2234 11.3798 14.5526 12.0185 15.0524 12.51C15.3645 12.8249 15.736 13.0746 16.1455 13.2446C16.5549 13.4145 16.9941 13.5014 17.4374 13.5H17.9493C17.8389 12.8078 17.5097 12.169 17.0099 11.6775C16.6979 11.3626 16.3263 11.1129 15.9168 10.943C15.5074 10.773 15.0682 10.6862 14.6249 10.6875H14.113ZM21.8868 10.6875C21.7764 11.3798 21.4472 12.0185 20.9474 12.51C20.6354 12.8249 20.2638 13.0746 19.8543 13.2446C19.4449 13.4145 19.0057 13.5014 18.5624 13.5H18.0505C18.1609 12.8078 18.4901 12.169 18.9899 11.6775C19.302 11.3626 19.6735 11.1129 20.083 10.943C20.4924 10.773 20.9316 10.6862 21.3749 10.6875H21.8868Z" fill="#22AF5E"/>
<path d="M34.2844 7.28263C33.5532 6.55138 32.0991 6.88888 30.8329 8.04988C30.235 7.88113 29.6337 7.74444 29.0329 7.62857C29.2248 7.31949 29.3817 6.9901 29.5009 6.64644C29.7979 5.75769 29.6978 5.00507 29.2197 4.52807C28.7416 4.05107 27.9901 3.95207 27.1019 4.24682C26.324 4.5307 25.6148 4.97558 25.0206 5.55238C20.4375 4.20295 15.5626 4.20295 10.9795 5.55238C10.3852 4.97576 9.67605 4.5309 8.89826 4.24682C8.01007 3.95207 7.25801 4.04994 6.78045 4.52807C6.30288 5.00619 6.20276 5.75769 6.4992 6.64644C6.61728 6.98676 6.77273 7.31294 6.9627 7.619C6.34395 7.73713 5.7252 7.87325 5.11038 8.04988C3.84363 6.88719 2.38957 6.55194 1.65888 7.28263C0.928196 8.01332 1.26513 9.48144 2.44245 10.7521C1.82817 13.5047 1.56134 16.3234 1.6482 19.1424L2.7732 19.1064C2.68667 16.2803 2.96669 13.455 3.60626 10.7009C3.62763 10.6081 3.62507 10.5113 3.5988 10.4197C3.57253 10.3281 3.52341 10.2447 3.45607 10.1773C3.43695 10.1587 3.41782 10.1413 3.39982 10.1283C2.48688 9.21313 2.26413 8.26869 2.45313 8.078C2.64213 7.88732 3.5877 8.11232 4.50007 9.02357C4.50907 9.03425 4.54226 9.07082 4.55238 9.07982C4.62454 9.15212 4.71502 9.20341 4.81412 9.22819C4.91322 9.25296 5.01719 9.25028 5.11488 9.22044C5.96835 8.96408 6.83805 8.76526 7.71813 8.62532C7.75357 8.66525 7.78507 8.70688 7.82163 8.74625C6.44981 14.8387 6.44981 21.16 7.82163 27.2525C7.76201 27.3161 7.70913 27.3836 7.65288 27.4483C6.79167 27.3223 5.93872 27.1452 5.09857 26.9178C5.00152 26.8913 4.89913 26.8913 4.80207 26.9178C4.70502 26.9443 4.61685 26.9964 4.54676 27.0686L4.50401 27.1169C3.58882 28.0316 2.64382 28.256 2.45313 28.0687C2.26245 27.8814 2.48688 26.9336 3.40263 26.0184C3.41051 26.0122 3.44201 25.9829 3.44932 25.9756C3.51896 25.9082 3.57 25.824 3.5975 25.731C3.625 25.6381 3.62801 25.5396 3.60626 25.4452C3.20924 23.7308 2.94911 21.9876 2.82832 20.2319L1.70332 20.3079C1.82246 22.0185 2.06915 23.7179 2.44132 25.3918C1.2657 26.6624 0.924258 28.1249 1.65776 28.8613C1.79297 28.9904 1.95278 29.0911 2.12768 29.1573C2.30259 29.2235 2.48902 29.2539 2.67588 29.2466C3.60322 29.1664 4.47057 28.7546 5.11882 28.0867C5.71451 28.2403 6.31526 28.3612 6.91488 28.4658C6.74663 28.7469 6.60735 29.0443 6.4992 29.3534C6.2022 30.2422 6.30232 30.9948 6.78045 31.4713C7.25857 31.9477 8.00951 32.0495 8.89826 31.7525C9.67997 31.4678 10.3924 31.0205 10.9885 30.4402C15.5852 31.6544 20.4183 31.6544 25.015 30.4402C25.6111 31.0205 26.3235 31.4678 27.1053 31.7525C27.4075 31.8587 27.7249 31.9157 28.0452 31.9213C28.2617 31.9294 28.4776 31.8937 28.68 31.8164C28.8824 31.739 29.0671 31.6217 29.2231 31.4713C29.7006 30.9948 29.8008 30.2422 29.5043 29.3534C29.3953 29.0411 29.2543 28.7408 29.0836 28.4574C29.6652 28.3544 30.2474 28.2363 30.8273 28.0867C31.475 28.7545 32.3418 29.1663 33.2686 29.2466C33.4554 29.2537 33.6418 29.2233 33.8167 29.1571C33.9916 29.091 34.1514 28.9903 34.2867 28.8613C35.0179 28.1266 34.6804 26.6619 33.5031 25.3918C34.1787 22.4041 34.4467 19.3388 34.2996 16.2793L33.1746 16.3389C33.3211 19.3982 33.039 22.4629 32.3365 25.4441C32.3218 25.5491 32.3329 25.6561 32.3686 25.7559C32.4044 25.8558 32.4638 25.9454 32.5418 26.0173C33.457 26.9324 33.6792 27.8786 33.4902 28.0676C33.3012 28.2566 32.3556 28.0338 31.4472 27.1259L31.4033 27.077C31.3334 27.0026 31.2445 26.9486 31.1462 26.9208C31.0479 26.8931 30.9439 26.8926 30.8453 26.9195C30.0217 27.1423 29.1857 27.3164 28.3416 27.4409C28.2854 27.3791 28.2381 27.3149 28.1813 27.2542C29.5994 21.1652 29.5994 14.8318 28.1813 8.74288C28.2145 8.70744 28.2421 8.67032 28.2747 8.63488C29.1376 8.77394 29.9903 8.96993 30.8273 9.22157C30.9262 9.25135 31.0313 9.25335 31.1312 9.22735C31.2311 9.20136 31.322 9.14837 31.3938 9.07419L31.4371 9.02694C32.3523 8.11232 33.2961 7.88788 33.4868 8.078C33.6775 8.26813 33.4559 9.21313 32.5435 10.1249C32.5351 10.1328 32.5002 10.1632 32.4923 10.1716C32.4217 10.2401 32.3702 10.3259 32.3431 10.4204C32.3159 10.515 32.314 10.615 32.3376 10.7105C32.7038 12.1906 32.9565 13.6965 33.0936 15.215L34.2141 15.1138C34.081 13.6438 33.8437 12.1851 33.5043 10.7488C34.6776 9.47919 35.0179 8.01669 34.2844 7.28263ZM28.426 30.6759C28.2724 30.83 27.9023 30.8323 27.4591 30.6854C26.7689 30.4223 26.1459 30.0088 25.6354 29.4749C25.6287 29.4671 25.5927 29.4271 25.5848 29.4187C25.5324 29.3652 25.4698 29.3227 25.4007 29.2937C25.3317 29.2648 25.2575 29.2499 25.1826 29.2499C25.1325 29.2501 25.0826 29.2567 25.0341 29.2696C20.4313 30.5437 15.5688 30.5437 10.966 29.2696C10.8692 29.2433 10.767 29.2433 10.6702 29.2697C10.5734 29.2961 10.4854 29.3479 10.4153 29.4198L10.3591 29.4828C9.84985 30.0131 9.22932 30.4239 8.5422 30.6854C8.09838 30.8323 7.72826 30.8289 7.57526 30.6759C7.42226 30.5229 7.41888 30.1522 7.5657 29.7089C7.82846 29.0188 8.24158 28.3959 8.77507 27.8853C8.78295 27.8786 8.82288 27.8426 8.83132 27.8347C8.90048 27.7673 8.95115 27.6833 8.97844 27.5907C9.00572 27.4981 9.00872 27.4 8.98713 27.3059C7.56058 21.1839 7.56058 14.8159 8.98713 8.69394C9.00872 8.59984 9.00572 8.50178 8.97844 8.40917C8.95115 8.31657 8.90048 8.23255 8.83132 8.16519L8.76832 8.10894C8.238 7.59972 7.82726 6.97918 7.5657 6.29207C7.41888 5.84882 7.4217 5.47757 7.57526 5.32457C7.72882 5.17157 8.09951 5.16932 8.5422 5.31557C9.2319 5.57848 9.85445 5.99159 10.3647 6.52494C10.3714 6.53282 10.4074 6.57275 10.4153 6.58119C10.487 6.6552 10.5777 6.70796 10.6775 6.73367C10.7772 6.75938 10.8821 6.75703 10.9806 6.72688C15.5537 5.31442 20.4465 5.31442 25.0195 6.72688C25.118 6.75664 25.2229 6.7588 25.3225 6.73311C25.4222 6.70742 25.5129 6.65488 25.5848 6.58119L25.6411 6.51819C26.1503 5.98787 26.7708 5.57713 27.4579 5.31557C27.9012 5.16819 28.2724 5.171 28.4249 5.32457C28.5773 5.47813 28.5813 5.84882 28.4344 6.29207C28.1715 6.98177 27.7584 7.60432 27.2251 8.11457C27.2172 8.12132 27.1773 8.15732 27.1688 8.16519C27.0986 8.23365 27.0474 8.3193 27.0205 8.41363C26.9935 8.50796 26.9917 8.6077 27.0153 8.70294C28.4886 14.8164 28.4886 21.1925 27.0153 27.3059C26.9937 27.4 26.9967 27.4981 27.024 27.5907C27.0512 27.6833 27.1019 27.7673 27.1711 27.8347L27.2341 27.8909C27.7644 28.4002 28.1751 29.0207 28.4367 29.7078C28.5824 30.1499 28.5796 30.5229 28.426 30.6759Z" fill="black"/>
<path d="M16.875 14.625H17.4375V16.3125C17.4375 16.4617 17.4968 16.6048 17.6023 16.7102C17.7077 16.8157 17.8508 16.875 18 16.875C18.1492 16.875 18.2923 16.8157 18.3977 16.7102C18.5032 16.6048 18.5625 16.4617 18.5625 16.3125V14.625H19.125C20.1689 14.6237 21.1696 14.2084 21.9078 13.4703C22.6459 12.7321 23.0612 11.7314 23.0625 10.6875C23.0625 10.5383 23.0032 10.3952 22.8977 10.2898C22.7923 10.1843 22.6492 10.125 22.5 10.125H21.375C20.8506 10.1249 20.3316 10.2299 19.8485 10.4339C19.3654 10.6378 18.9281 10.9366 18.5625 11.3124V9.5625C18.5625 9.11495 18.7403 8.68572 19.0568 8.36926C19.3732 8.05279 19.8024 7.875 20.25 7.875C20.3992 7.875 20.5423 7.81574 20.6477 7.71025C20.7532 7.60476 20.8125 7.46168 20.8125 7.3125C20.8125 7.16332 20.7532 7.02024 20.6477 6.91475C20.5423 6.80926 20.3992 6.75 20.25 6.75C19.6745 6.75168 19.1135 6.93009 18.6428 7.26108C18.172 7.59208 17.8143 8.05968 17.6181 8.60063C17.1066 8.13593 16.441 7.87739 15.75 7.875C15.6008 7.875 15.4577 7.93426 15.3523 8.03975C15.2468 8.14524 15.1875 8.28832 15.1875 8.4375C15.1875 8.58668 15.2468 8.72976 15.3523 8.83525C15.4577 8.94074 15.6008 9 15.75 9C16.1976 9 16.6268 9.17779 16.9432 9.49426C17.2597 9.81072 17.4375 10.2399 17.4375 10.6875V11.3124C17.0719 10.9366 16.6346 10.6378 16.1515 10.4339C15.6684 10.2299 15.1494 10.1249 14.625 10.125H13.5C13.3508 10.125 13.2077 10.1843 13.1023 10.2898C12.9968 10.3952 12.9375 10.5383 12.9375 10.6875C12.9388 11.7314 13.3541 12.7321 14.0922 13.4703C14.8304 14.2084 15.8311 14.6237 16.875 14.625ZM21.375 11.25H21.8813C21.7508 11.8849 21.4054 12.4554 20.9033 12.8652C20.4012 13.2751 19.7731 13.4993 19.125 13.5H18.6187C18.7492 12.8651 19.0946 12.2946 19.5967 11.8848C20.0988 11.4749 20.7269 11.2507 21.375 11.25ZM14.625 11.25C15.2731 11.2507 15.9012 11.4749 16.4033 11.8848C16.9054 12.2946 17.2508 12.8651 17.3812 13.5H16.875C16.2269 13.4993 15.5988 13.2751 15.0967 12.8652C14.5946 12.4554 14.2492 11.8849 14.1188 11.25H14.625ZM24.75 18H11.25C11.1008 18 10.9577 18.0593 10.8523 18.1648C10.7468 18.2702 10.6875 18.4133 10.6875 18.5625V25.3125C10.6875 25.4617 10.7468 25.6048 10.8523 25.7102C10.9577 25.8157 11.1008 25.875 11.25 25.875H24.75C24.8992 25.875 25.0423 25.8157 25.1477 25.7102C25.2532 25.6048 25.3125 25.4617 25.3125 25.3125V18.5625C25.3125 18.4133 25.2532 18.2702 25.1477 18.1648C25.0423 18.0593 24.8992 18 24.75 18ZM24.1875 24.75H11.8125V19.125H24.1875V24.75Z" fill="black"/>
<path d="M17.4375 20.25H12.9375V21.375H17.4375V20.25Z" fill="black"/>
<path d="M23.0625 22.5H16.3125V23.625H23.0625V22.5Z" fill="black"/>
<path d="M15.1875 22.5H12.9375V23.625H15.1875V22.5Z" fill="black"/>
<path d="M23.0625 20.25H18.5625V21.375H23.0625V20.25Z" fill="black"/>
</svg>
