<svg width="15" height="15" viewBox="0 0 15 15" fill="none" xmlns="http://www.w3.org/2000/svg">
<g clip-path="url(#clip0_169_313)">
<path d="M13.9493 5.3975V3.22202L11.7625 2.12782L9.6362 0L7.5 0.534189L5.3638 0L3.23753 2.12782L1.05073 3.22202V5.3975L0 7.5005L1.05073 9.60349V11.779L3.23753 12.8732L5.3638 15.001L7.5 14.4668L9.6362 15.001L11.7625 12.8732L13.9493 11.779V9.60349L15 7.5005L13.9493 5.3975ZM12.9571 9.36917V11.1654L11.2465 12.0212L9.33258 13.9008L7.5 13.4421L5.66742 13.9008L3.88147 12.1136L2.04194 11.1644V9.36917L1.10927 7.5005L2.04293 5.63183V3.83564L3.75347 2.97974L5.66841 1.09916L7.50099 1.55789L9.33358 1.09916L11.1195 2.88641L12.9591 3.83564V5.63183L13.8907 7.5005L12.9571 9.36917Z" fill="#009245"/>
<path d="M4.1722 10.1277L10.1254 4.17023L10.8269 4.87322L4.87369 10.8307L4.1722 10.1277ZM5.51564 7.00402C6.33618 7.00402 7.00393 6.33579 7.00393 5.51464C7.00393 4.6935 6.33618 4.02527 5.51564 4.02527C4.69509 4.02527 4.02734 4.6935 4.02734 5.51464C4.02734 6.33579 4.69509 7.00402 5.51564 7.00402ZM5.51564 5.01819C5.64721 5.01819 5.77339 5.07049 5.86643 5.1636C5.95947 5.2567 6.01173 5.38298 6.01173 5.51464C6.01173 5.64631 5.95947 5.77259 5.86643 5.86569C5.77339 5.9588 5.64721 6.0111 5.51564 6.0111C5.38406 6.0111 5.25788 5.9588 5.16484 5.86569C5.07181 5.77259 5.01954 5.64631 5.01954 5.51464C5.01954 5.38298 5.07181 5.2567 5.16484 5.1636C5.25788 5.07049 5.38406 5.01819 5.51564 5.01819ZM9.48441 7.99694C8.66387 7.99694 7.99612 8.66517 7.99612 9.48631C7.99612 10.3075 8.66387 10.9757 9.48441 10.9757C10.305 10.9757 10.9727 10.3075 10.9727 9.48631C10.9727 8.66517 10.305 7.99694 9.48441 7.99694ZM9.48441 9.98277C9.35284 9.98277 9.22666 9.93047 9.13362 9.83736C9.04058 9.74426 8.98832 9.61798 8.98832 9.48631C8.98832 9.35464 9.04058 9.22837 9.13362 9.13526C9.22666 9.04216 9.35284 8.98985 9.48441 8.98985C9.61599 8.98985 9.74217 9.04216 9.83521 9.13526C9.92825 9.22837 9.98051 9.35464 9.98051 9.48631C9.98051 9.61798 9.92825 9.74426 9.83521 9.83736C9.74217 9.93047 9.61599 9.98277 9.48441 9.98277Z" fill="#009245"/>
</g>
<defs>
<clipPath id="clip0_169_313">
<rect width="15" height="15" fill="white"/>
</clipPath>
</defs>
</svg>
