<svg width="32" height="32" viewBox="0 0 32 32" fill="none" xmlns="http://www.w3.org/2000/svg">
<path d="M17.3334 14.6665H9.33341C8.97979 14.6665 8.64065 14.807 8.39061 15.057C8.14056 15.3071 8.00008 15.6462 8.00008 15.9998C8.00008 16.3535 8.14056 16.6926 8.39061 16.9426C8.64065 17.1927 8.97979 17.3332 9.33341 17.3332H17.3334C17.687 17.3332 18.0262 17.1927 18.2762 16.9426C18.5263 16.6926 18.6667 16.3535 18.6667 15.9998C18.6667 15.6462 18.5263 15.3071 18.2762 15.057C18.0262 14.807 17.687 14.6665 17.3334 14.6665ZM22.6667 9.33317H9.33341C8.97979 9.33317 8.64065 9.47365 8.39061 9.7237C8.14056 9.97374 8.00008 10.3129 8.00008 10.6665C8.00008 11.0201 8.14056 11.3593 8.39061 11.6093C8.64065 11.8594 8.97979 11.9998 9.33341 11.9998H22.6667C23.0204 11.9998 23.3595 11.8594 23.6096 11.6093C23.8596 11.3593 24.0001 11.0201 24.0001 10.6665C24.0001 10.3129 23.8596 9.97374 23.6096 9.7237C23.3595 9.47365 23.0204 9.33317 22.6667 9.33317ZM25.3334 2.6665H6.66675C5.60588 2.6665 4.58847 3.08793 3.83832 3.83808C3.08818 4.58822 2.66675 5.60564 2.66675 6.6665V19.9998C2.66675 21.0607 3.08818 22.0781 3.83832 22.8283C4.58847 23.5784 5.60588 23.9998 6.66675 23.9998H22.1201L27.0534 28.9465C27.178 29.0701 27.3258 29.1678 27.4882 29.2342C27.6507 29.3006 27.8246 29.3342 28.0001 29.3332C28.175 29.3377 28.3485 29.3011 28.5067 29.2265C28.7502 29.1265 28.9587 28.9566 29.1058 28.7383C29.2529 28.52 29.3321 28.2631 29.3334 27.9998V6.6665C29.3334 5.60564 28.912 4.58822 28.1618 3.83808C27.4117 3.08793 26.3943 2.6665 25.3334 2.6665ZM26.6667 24.7865L23.6134 21.7198C23.4888 21.5963 23.3411 21.4985 23.1786 21.4321C23.0162 21.3658 22.8422 21.3322 22.6667 21.3332H6.66675C6.31313 21.3332 5.97399 21.1927 5.72394 20.9426C5.47389 20.6926 5.33341 20.3535 5.33341 19.9998V6.6665C5.33341 6.31288 5.47389 5.97374 5.72394 5.7237C5.97399 5.47365 6.31313 5.33317 6.66675 5.33317H25.3334C25.687 5.33317 26.0262 5.47365 26.2762 5.7237C26.5263 5.97374 26.6667 6.31288 26.6667 6.6665V24.7865Z" fill="#009245"/>
</svg>
