<svg width="17" height="17" viewBox="0 0 17 17" fill="none" xmlns="http://www.w3.org/2000/svg">
<path d="M13.954 10.9286C13.4958 10.9319 13.0443 11.0391 12.6335 11.2421C12.2227 11.445 11.8631 11.7385 11.5818 12.1004L5.95166 9.28323C6.02409 9.02831 6.06284 8.765 6.06694 8.50001C6.06284 8.23503 6.02409 7.97171 5.95166 7.7168L11.5818 4.89965C11.8631 5.26157 12.2227 5.55501 12.6335 5.75796C13.0443 5.9609 13.4958 6.06808 13.954 6.07144C14.5539 6.07144 15.1404 5.8934 15.6393 5.55983C16.1381 5.22626 16.5269 4.75214 16.7565 4.19744C16.9861 3.64273 17.0462 3.03235 16.9291 2.44348C16.8121 1.85461 16.5232 1.3137 16.0989 0.889143C15.6747 0.46459 15.1342 0.175466 14.5458 0.0583318C13.9573 -0.058802 13.3474 0.00131533 12.7931 0.231082C12.2388 0.460848 11.765 0.849944 11.4317 1.34916C11.0984 1.84839 10.9205 2.43531 10.9205 3.03572C10.9246 3.30071 10.9633 3.56402 11.0358 3.81894L5.40564 6.63608C5.12434 6.27417 4.76476 5.98072 4.35392 5.77778C3.94307 5.57483 3.49163 5.46765 3.03347 5.46429C2.22894 5.46429 1.45737 5.78413 0.888482 6.35344C0.319597 6.92274 0 7.69489 0 8.50001C0 9.30514 0.319597 10.0773 0.888482 10.6466C1.45737 11.2159 2.22894 11.5357 3.03347 11.5357C3.49163 11.5324 3.94307 11.4252 4.35392 11.2222C4.76476 11.0193 5.12434 10.7259 5.40564 10.3639L11.0358 13.1811C10.8721 13.7943 10.9047 14.4435 11.1288 15.0372C11.353 15.631 11.7575 16.1395 12.2855 16.4912C12.8134 16.843 13.4383 17.0203 14.0721 16.9982C14.706 16.9761 15.317 16.7557 15.8192 16.368C16.3214 15.9804 16.6896 15.445 16.8719 14.837C17.0543 14.2291 17.0416 13.5793 16.8358 12.9789C16.6299 12.3786 16.2412 11.8579 15.7242 11.4901C15.2073 11.1223 14.5882 10.926 13.954 10.9286ZM13.954 1.21429C14.3139 1.21429 14.6658 1.32111 14.9651 1.52126C15.2644 1.7214 15.4977 2.00587 15.6355 2.33869C15.7732 2.67151 15.8093 3.03774 15.7391 3.39106C15.6688 3.74439 15.4955 4.06893 15.2409 4.32367C14.9864 4.5784 14.6621 4.75187 14.309 4.82215C13.956 4.89243 13.59 4.85636 13.2574 4.7185C12.9249 4.58064 12.6406 4.34719 12.4406 4.04765C12.2406 3.74812 12.1339 3.39596 12.1339 3.03572C12.1339 2.55265 12.3256 2.08936 12.667 1.74777C13.0083 1.40619 13.4712 1.21429 13.954 1.21429ZM3.03347 10.3214C2.67349 10.3214 2.3216 10.2146 2.02228 10.0145C1.72297 9.81434 1.48969 9.52987 1.35193 9.19704C1.21417 8.86422 1.17813 8.49799 1.24836 8.14467C1.31859 7.79135 1.49193 7.4668 1.74648 7.21207C2.00102 6.95733 2.32533 6.78386 2.67839 6.71358C3.03145 6.6433 3.39741 6.67937 3.72998 6.81723C4.06256 6.95509 4.34682 7.18855 4.54681 7.48808C4.7468 7.78761 4.85355 8.13977 4.85355 8.50001C4.85355 8.98309 4.66179 9.44637 4.32046 9.78796C3.97913 10.1295 3.51618 10.3214 3.03347 10.3214ZM13.954 15.7857C13.594 15.7857 13.2421 15.6789 12.9428 15.4788C12.6435 15.2786 12.4102 14.9942 12.2724 14.6613C12.1347 14.3285 12.0986 13.9623 12.1688 13.609C12.2391 13.2556 12.4124 12.9311 12.667 12.6764C12.9215 12.4216 13.2458 12.2482 13.5989 12.1779C13.9519 12.1076 14.3179 12.1437 14.6505 12.2815C14.983 12.4194 15.2673 12.6528 15.4673 12.9524C15.6673 13.2519 15.774 13.6041 15.774 13.9643C15.774 14.4474 15.5823 14.9107 15.2409 15.2523C14.8996 15.5938 14.4367 15.7857 13.954 15.7857Z" fill="black"/>
</svg>
