<?xml version="1.0" standalone="no"?>
<!DOCTYPE svg PUBLIC "-//W3C//DTD SVG 20010904//EN"
 "http://www.w3.org/TR/2001/REC-SVG-20010904/DTD/svg10.dtd">
<svg version="1.0" xmlns="http://www.w3.org/2000/svg"
 width="128.000000pt" height="128.000000pt" viewBox="0 0 128.000000 128.000000"
 preserveAspectRatio="xMidYMid meet">

<g transform="translate(0.000000,128.000000) scale(0.100000,-0.100000)"
fill="#000000" stroke="none">
<path d="M570 1271 c-101 -33 -173 -116 -187 -216 l-6 -45 -73 0 c-81 0 -104
-13 -104 -58 0 -15 -16 -211 -34 -437 -38 -456 -38 -456 26 -495 32 -19 49
-20 449 -20 l416 0 34 23 c60 40 60 47 23 492 -18 220 -33 414 -33 432 -1 51
-22 63 -105 63 l-73 0 -6 45 c-12 83 -66 158 -142 197 -43 22 -144 33 -185 19z
m146 -102 c48 -23 82 -69 91 -124 l6 -35 -173 0 -173 0 6 35 c9 54 43 101 90
124 53 27 99 27 153 0z m-336 -368 c0 -112 1 -121 22 -135 19 -13 25 -14 43
-2 18 12 20 25 23 135 l3 121 169 0 170 0 0 -119 c0 -112 1 -121 22 -135 19
-13 25 -14 43 -2 18 12 20 25 23 135 l3 121 44 0 c25 0 45 -1 46 -2 0 -2 15
-183 33 -403 23 -272 31 -404 24 -412 -8 -10 -102 -13 -408 -13 -306 0 -400 3
-408 13 -7 8 1 140 24 412 18 220 33 401 33 403 1 1 21 2 46 2 l45 0 0 -119z"/>
</g>
</svg>
