<svg width="26" height="26" viewBox="0 0 26 26" fill="none" xmlns="http://www.w3.org/2000/svg">
<path d="M19.6755 25.4024C19.3373 25.4024 18.9969 25.3206 18.6835 25.1562L13.029 22.182L7.31761 25.1551C6.96622 25.3419 6.56924 25.4258 6.17232 25.3971C5.77539 25.3684 5.39463 25.2282 5.07381 24.9927C4.75089 24.7603 4.50008 24.4415 4.3502 24.073C4.20033 23.7044 4.15748 23.3011 4.22657 22.9093L5.30657 16.6134L0.714503 12.1C0.42821 11.8234 0.22576 11.4716 0.13042 11.0851C0.03508 10.6987 0.050718 10.2931 0.175537 9.91513C0.297352 9.53653 0.523323 9.19989 0.827575 8.94376C1.13183 8.68762 1.50206 8.52234 1.89588 8.46685L8.21657 7.54823L11.0904 1.78616C11.4524 1.05375 12.1838 0.599609 13.0011 0.599609C13.8183 0.599609 14.5497 1.05375 14.9117 1.78616L17.739 7.51409L24.1062 8.46685C24.5 8.52234 24.8703 8.68762 25.1745 8.94376C25.4788 9.19989 25.7048 9.53653 25.8266 9.91513C25.9509 10.2932 25.9663 10.6986 25.871 11.085C25.7756 11.4714 25.5735 11.8231 25.2876 12.1L20.7131 16.5586L21.7755 22.9103C21.844 23.3021 21.8009 23.7052 21.651 24.0737C21.5012 24.4421 21.2508 24.7609 20.9283 24.9937C20.564 25.2582 20.1257 25.4012 19.6755 25.4024ZM2.15761 10.6186L6.73105 15.0772C7.23278 15.5675 7.46243 16.271 7.3445 16.962L6.26554 23.2589L6.83657 24.2396L6.3545 23.3241L12.008 20.351C12.3137 20.1903 12.654 20.1063 12.9994 20.1061C13.3448 20.106 13.6851 20.1896 13.9911 20.35L19.6455 23.3241L19.7345 23.2589L18.6545 16.9631C18.5965 16.6226 18.6219 16.2732 18.7285 15.9447C18.8352 15.6163 19.0199 15.3186 19.2669 15.0772L23.8414 10.6186L23.8073 10.512L17.4866 9.5934C17.1448 9.54336 16.8202 9.41114 16.5407 9.20807C16.2613 9.00501 16.0353 8.73717 15.8821 8.42754L13.0548 2.69961C13.0466 2.68306 13.0373 2.66651 12.999 2.66651L10.1159 8.42754C9.96318 8.73712 9.73757 9.00497 9.45843 9.20806C9.1793 9.41115 8.85502 9.54339 8.51347 9.5934L2.19071 10.512L1.4345 11.3582L2.15761 10.6186Z" fill="#009245"/>
</svg>
