<svg width="13" height="13" viewBox="0 0 13 13" fill="none" xmlns="http://www.w3.org/2000/svg">
<path d="M5.79676 10.6234C6.01854 10.4915 6.27189 10.4219 6.52998 10.4222C6.78807 10.4224 7.04128 10.4925 7.26281 10.6249L9.65255 12.0537C10.2249 12.3957 10.9247 11.8899 10.7744 11.2502L10.147 8.58859C10.0867 8.33299 10.098 8.06575 10.1795 7.81612C10.261 7.5665 10.4097 7.34412 10.6092 7.17334L12.7084 5.37531C13.2128 4.94387 12.9417 4.12606 12.2791 4.07383L9.50158 3.8413C9.24282 3.81959 8.99485 3.72788 8.78424 3.576C8.57362 3.42412 8.4083 3.21779 8.30599 2.97913L7.22274 0.451297C6.96659 -0.150432 6.09369 -0.150432 5.83754 0.451297L4.75572 2.97269C4.65327 3.21098 4.48797 3.41695 4.2775 3.56856C4.06704 3.72017 3.81932 3.81172 3.56085 3.83343L0.781161 4.06668C0.119331 4.11891 -0.15184 4.93672 0.351866 5.36816L2.45184 7.16619C2.65119 7.33705 2.79969 7.55946 2.88109 7.80908C2.96249 8.0587 2.97364 8.3259 2.91333 8.58143L2.28584 11.2431C2.13559 11.8827 2.83534 12.3878 3.40702 12.0458L5.79676 10.6234Z" fill="#F8B84E"/>
</svg>
