<svg width="24" height="24" viewBox="0 0 24 24" fill="none" xmlns="http://www.w3.org/2000/svg">
<path d="M12 18.4622C10.9946 18.462 10.003 18.2272 9.1042 17.7765C8.2054 17.3258 7.42412 16.6716 6.82249 15.866C6.22085 15.0604 5.81544 14.1255 5.63849 13.1358C5.46154 12.146 5.51792 11.1286 5.80316 10.1644C6.05473 9.3138 6.47958 8.52444 7.05097 7.84597C7.09683 7.78465 7.15472 7.73334 7.2211 7.69519C7.28748 7.65703 7.36095 7.63282 7.43701 7.62406C7.51307 7.61529 7.59013 7.62214 7.66345 7.64419C7.73677 7.66625 7.80482 7.70304 7.86342 7.75231C7.92203 7.80159 7.96995 7.86231 8.00427 7.93075C8.03858 7.9992 8.05856 8.07393 8.06299 8.15037C8.06741 8.22681 8.05618 8.30334 8.02999 8.37529C8.00379 8.44723 7.96319 8.51308 7.91066 8.56878C7.76112 8.74738 7.62303 8.93525 7.49722 9.13128C7.35556 9.35215 7.23022 9.58308 7.12222 9.82222C7.02633 10.0354 6.94459 10.2546 6.87753 10.4785C6.8117 10.7021 6.76035 10.9298 6.72378 11.16C6.68103 11.4364 6.6594 11.7157 6.65909 11.9953C6.66087 13.1238 7.02052 14.2226 7.6863 15.1337C8.35209 16.0448 9.28969 16.7212 10.3643 17.0657C11.4388 17.4103 12.595 17.4051 13.6664 17.0509C14.7378 16.6967 15.6693 16.0119 16.3269 15.0948C16.9844 14.1778 17.3342 13.0758 17.3258 11.9474C17.3174 10.819 16.9514 9.72229 16.2803 8.81509C15.6092 7.90789 14.6677 7.23692 13.5911 6.8987C12.5145 6.56048 11.3584 6.57243 10.2891 6.93284C10.217 6.96895 10.138 6.98913 10.0574 6.99201C9.97677 6.99489 9.8965 6.98042 9.822 6.94956C9.7475 6.9187 9.6805 6.87218 9.62555 6.81316C9.5706 6.75413 9.52898 6.68398 9.50352 6.60746C9.47806 6.53095 9.46935 6.44985 9.47798 6.36967C9.48661 6.28949 9.51238 6.2121 9.55354 6.14276C9.59471 6.07341 9.6503 6.01372 9.71655 5.96775C9.7828 5.92177 9.85817 5.89058 9.93753 5.87628C10.8256 5.57698 11.7681 5.47441 12.6998 5.57569C13.6315 5.67698 14.53 5.97969 15.333 6.46284C16.136 6.94599 16.8243 7.59801 17.3502 8.3737C17.8761 9.14938 18.227 10.0302 18.3785 10.955C18.5301 11.8798 18.4787 12.8265 18.2279 13.7295C17.9771 14.6325 17.5329 15.4701 16.9261 16.1842C16.3193 16.8984 15.5644 17.4721 14.7138 17.8654C13.8632 18.2588 12.9372 18.4624 12 18.4622Z" fill="#35363B"/>
<path d="M12 6.10034V17.8997C13.5647 17.8997 15.0653 17.2781 16.1717 16.1717C17.2781 15.0653 17.8997 13.5647 17.8997 12C17.8997 10.4353 17.2781 8.93473 16.1717 7.82832C15.0653 6.72191 13.5647 6.10034 12 6.10034Z" fill="#35363B"/>
<path d="M12 4.20378C11.8508 4.20378 11.7078 4.14452 11.6023 4.03903C11.4968 3.93354 11.4375 3.79046 11.4375 3.64128V1.50659C11.4375 1.35741 11.4968 1.21433 11.6023 1.10884C11.7078 1.00335 11.8508 0.944092 12 0.944092C12.1492 0.944092 12.2923 1.00335 12.3978 1.10884C12.5033 1.21433 12.5625 1.35741 12.5625 1.50659V3.64128C12.5625 3.79046 12.5033 3.93354 12.3978 4.03903C12.2923 4.14452 12.1492 4.20378 12 4.20378ZM12 23.055C11.8508 23.055 11.7078 22.9958 11.6023 22.8903C11.4968 22.7848 11.4375 22.6417 11.4375 22.4925V20.3588C11.4375 20.2096 11.4968 20.0665 11.6023 19.961C11.7078 19.8555 11.8508 19.7963 12 19.7963C12.1492 19.7963 12.2923 19.8555 12.3978 19.961C12.5033 20.0665 12.5625 20.2096 12.5625 20.3588V22.4935C12.5623 22.6425 12.5029 22.7853 12.3974 22.8906C12.292 22.9959 12.149 23.055 12 23.055ZM22.4935 12.5625H20.3588C20.2096 12.5625 20.0665 12.5033 19.961 12.3978C19.8555 12.2923 19.7963 12.1492 19.7963 12C19.7963 11.8508 19.8555 11.7078 19.961 11.6023C20.0665 11.4968 20.2096 11.4375 20.3588 11.4375H22.4935C22.6426 11.4375 22.7857 11.4968 22.8912 11.6023C22.9967 11.7078 23.056 11.8508 23.056 12C23.056 12.1492 22.9967 12.2923 22.8912 12.3978C22.7857 12.5033 22.6426 12.5625 22.4935 12.5625ZM3.64128 12.5625H1.50659C1.35741 12.5625 1.21433 12.5033 1.10884 12.3978C1.00335 12.2923 0.944092 12.1492 0.944092 12C0.944092 11.8508 1.00335 11.7078 1.10884 11.6023C1.21433 11.4968 1.35741 11.4375 1.50659 11.4375H3.64128C3.79046 11.4375 3.93354 11.4968 4.03903 11.6023C4.14452 11.7078 4.20378 11.8508 4.20378 12C4.20378 12.1492 4.14452 12.2923 4.03903 12.3978C3.93354 12.5033 3.79046 12.5625 3.64128 12.5625Z" fill="#35363B"/>
<path d="M17.9099 6.08994L19.4193 4.58057L17.9099 6.08994Z" fill="#35363B"/>
<path d="M17.9063 6.65627C17.7953 6.65599 17.6869 6.62288 17.5947 6.56111C17.5025 6.49934 17.4306 6.41168 17.3881 6.30915C17.3456 6.20662 17.3344 6.0938 17.3558 5.98491C17.3773 5.87602 17.4305 5.77592 17.5088 5.69721L19.0182 4.18783C19.1248 4.08847 19.2658 4.03438 19.4116 4.03695C19.5573 4.03952 19.6963 4.09856 19.7994 4.20162C19.9024 4.30468 19.9615 4.44372 19.964 4.58944C19.9666 4.73517 19.9125 4.8762 19.8132 4.98283L18.3038 6.49221C18.1982 6.59739 18.0553 6.65639 17.9063 6.65627Z" fill="#35363B"/>
<path d="M4.58057 19.4193L6.08994 17.9099L4.58057 19.4193Z" fill="#35363B"/>
<path d="M4.58056 19.9819C4.46938 19.9818 4.36072 19.9488 4.26831 19.8869C4.1759 19.8251 4.10388 19.7373 4.06135 19.6346C4.01881 19.5319 4.00767 19.4189 4.02934 19.3098C4.051 19.2008 4.10449 19.1006 4.18306 19.0219L5.69244 17.5125C5.74393 17.4573 5.80603 17.4129 5.87503 17.3822C5.94403 17.3514 6.01852 17.3349 6.09404 17.3336C6.16957 17.3323 6.24459 17.3461 6.31463 17.3744C6.38468 17.4027 6.4483 17.4448 6.50171 17.4982C6.55513 17.5517 6.59724 17.6153 6.62553 17.6853C6.65382 17.7554 6.66771 17.8304 6.66638 17.9059C6.66505 17.9814 6.64851 18.0559 6.61777 18.1249C6.58703 18.1939 6.5427 18.256 6.48744 18.3075L4.97806 19.8169C4.87267 19.9224 4.72969 19.9818 4.58056 19.9819Z" fill="#35363B"/>
<path d="M17.9099 17.9099L19.4193 19.4193L17.9099 17.9099Z" fill="#35363B"/>
<path d="M19.4194 19.9819C19.2703 19.9818 19.1273 19.9224 19.0219 19.8169L17.5125 18.3075C17.4573 18.256 17.4129 18.1939 17.3822 18.1249C17.3514 18.0559 17.3349 17.9814 17.3336 17.9059C17.3323 17.8304 17.3461 17.7554 17.3744 17.6853C17.4027 17.6153 17.4448 17.5517 17.4982 17.4982C17.5517 17.4448 17.6153 17.4027 17.6853 17.3744C17.7554 17.3461 17.8304 17.3323 17.9059 17.3336C17.9814 17.3349 18.0559 17.3514 18.1249 17.3822C18.1939 17.4129 18.256 17.4573 18.3075 17.5125L19.8169 19.0219C19.8955 19.1006 19.949 19.2008 19.9706 19.3098C19.9923 19.4189 19.9812 19.5319 19.9386 19.6346C19.8961 19.7373 19.8241 19.8251 19.7317 19.8869C19.6392 19.9488 19.5306 19.9818 19.4194 19.9819Z" fill="#35363B"/>
<path d="M4.58057 4.58057L6.08994 6.08994L4.58057 4.58057Z" fill="#35363B"/>
<path d="M6.09373 6.65627C5.94473 6.65639 5.80177 6.59739 5.69623 6.49221L4.18686 4.98283C4.0875 4.8762 4.03341 4.73517 4.03598 4.58944C4.03855 4.44372 4.09758 4.30468 4.20064 4.20162C4.3037 4.09856 4.44274 4.03952 4.58847 4.03695C4.73419 4.03438 4.87523 4.08847 4.98186 4.18783L6.49123 5.69721C6.56948 5.77592 6.62269 5.87602 6.64417 5.98491C6.66565 6.0938 6.65444 6.20662 6.61194 6.30915C6.56945 6.41168 6.49757 6.49934 6.40536 6.56111C6.31315 6.62288 6.20472 6.65599 6.09373 6.65627Z" fill="#35363B"/>
</svg>
