<svg width="24" height="24" viewBox="0 0 24 24" fill="none" xmlns="http://www.w3.org/2000/svg">
<g clip-path="url(#clip0_74_288)">
<path d="M22.3046 9.71612C22.4914 9.27043 22.5907 8.79406 22.5907 8.31598C22.5907 7.17248 22.0448 6.10206 21.1204 5.38047L21.977 4.29678C22.0697 4.1796 22.0757 4.01553 21.992 3.89165C21.3521 2.94871 20.3205 2.87886 19.7515 2.92293L19.9466 1.76118C19.9721 1.60817 19.8924 1.45716 19.7514 1.39254C18.3612 0.753703 17.2744 1.37915 16.8937 1.79835C16.8257 1.87368 16.7943 1.97513 16.8083 2.07558L16.9494 3.10101C15.751 2.99429 15.139 3.81916 15.1108 3.85884C15.0472 3.94723 15.0298 4.06073 15.0632 4.16419L15.5751 5.74024C14.9583 6.37217 14.592 7.16587 14.5235 8.02163C14.5015 7.99396 14.4813 7.96488 14.4582 7.93797L13.7373 7.10962L12.1195 5.1037C11.9514 4.89712 11.794 4.68643 11.6421 4.47495C11.7906 4.39158 11.9339 4.29682 12.0629 4.17893C12.1814 4.07044 12.2089 3.89399 12.1285 3.75471C11.7505 3.09846 11.1763 2.65649 10.512 2.51051C10.2033 2.44229 9.89175 2.44547 9.59263 2.51311C9.46856 2.22357 9.29428 1.6876 9.37964 1.07614C9.39605 0.957944 9.35018 0.839752 9.2581 0.764082C9.16603 0.687743 9.04114 0.66531 8.92864 0.704484L7.67808 1.13439C7.56056 1.17457 7.47417 1.27569 7.45207 1.3979C7.33886 2.02757 7.52251 2.75317 7.97754 3.5079C7.24331 4.30666 7.1377 5.58032 7.77652 6.68239C7.86692 6.83875 8.06312 6.89835 8.22585 6.81765C8.33129 6.76517 8.4294 6.70239 8.52342 6.63425C8.93933 7.56937 9.26245 8.53382 9.51652 9.60002H8.21015C7.86863 7.90582 7.40671 5.93988 7.17149 5.41643C6.87384 4.75582 6.33678 4.25091 5.65944 3.99444C5.39857 3.89579 5.12885 3.83942 4.85811 3.82326C4.94468 3.6885 5.02098 3.54645 5.07886 3.39377C5.29783 2.81587 5.27875 2.18741 5.02495 1.6239C4.94694 1.45147 4.7437 1.37413 4.57161 1.45214C4.2019 1.61871 3.89085 1.87418 3.65775 2.19251C3.41116 1.89557 3.08828 1.65546 2.7023 1.50906C2.61725 1.47625 2.52283 1.47926 2.44013 1.51676C2.3571 1.55426 2.29248 1.6229 2.26 1.70794C2.11649 2.08671 2.07725 2.48682 2.13733 2.87643C1.74496 2.84014 1.34784 2.90334 0.978638 3.06966C0.895602 3.10716 0.830981 3.1758 0.798504 3.26085C0.766361 3.34589 0.769374 3.44031 0.806539 3.52335C1.06067 4.08685 1.5187 4.51777 2.09594 4.73674C2.24983 4.79491 2.40789 4.83141 2.56695 4.85602C1.96492 5.62435 1.79661 6.6941 2.22451 7.64835C2.38455 7.99639 2.93295 8.81122 3.49304 9.60002H2.28578C1.40353 9.60002 0.685669 10.3179 0.685669 11.2001C0.685669 12.0824 1.40353 12.7999 2.28578 12.7999H2.58934L4.91178 22.1063C5.08924 22.8174 5.7254 23.3143 6.45866 23.3143H17.5412C18.2745 23.3143 18.9107 22.8174 19.0881 22.1063L21.4106 12.7999H21.7141C22.5964 12.7999 23.3142 12.0824 23.3142 11.2001C23.3142 10.5268 22.8949 9.95187 22.3046 9.71612ZM21.2705 4.08518L20.5439 5.00434C20.2056 4.8217 19.8464 4.68777 19.469 4.60549L19.6337 3.62484C19.9388 3.5796 20.7385 3.52615 21.2705 4.08518ZM19.2247 1.91922L18.7897 4.50956C18.7088 4.50487 18.6283 4.50136 18.5477 4.50136C18.3086 4.50136 18.0732 4.52358 17.8423 4.56179L17.5121 2.16062C17.7488 1.97312 18.3472 1.61721 19.2247 1.91922ZM17.0466 3.80757L17.1737 4.73121C16.8045 4.85711 16.4567 5.0336 16.1393 5.25764L15.7767 4.14143C15.9608 3.97155 16.3827 3.69452 17.0466 3.80757ZM16.1979 6.08439C16.8267 5.50582 17.6614 5.18707 18.5477 5.18707C18.7058 5.18707 18.8628 5.19779 19.0292 5.21989C19.5401 5.28718 20.0169 5.46062 20.4462 5.73585C21.3596 6.32111 21.905 7.2854 21.905 8.31598C21.905 8.75727 21.7963 9.19581 21.6003 9.60002H15.4909C15.2996 9.19903 15.1938 8.76062 15.1938 8.31598C15.1938 7.46955 15.5501 6.67703 16.1979 6.08439ZM8.67317 1.51743C8.69125 2.04678 8.83662 2.48891 8.95634 2.77088C8.90913 2.79929 8.8618 2.8275 8.81614 2.85973C8.7158 2.93071 8.61445 2.99927 8.51321 3.06816C8.23323 2.57789 8.09167 2.1096 8.10665 1.71196L8.67317 1.51743ZM8.21045 6.01274C7.85587 5.13216 8.06781 4.19299 8.76558 3.72658C8.91591 3.62614 9.06424 3.52402 9.2119 3.41955C9.55509 3.17714 9.96625 3.09243 10.3647 3.18015C10.7524 3.2652 11.1013 3.4989 11.3688 3.84812C11.0273 4.06073 10.6155 4.13239 10.2234 4.04031C10.0791 4.00716 9.92875 4.06944 9.85174 4.19667C9.77473 4.3239 9.78846 4.48629 9.88589 4.59879C10.2502 5.01899 10.4139 5.58484 10.35 6.16375C9.91167 5.96319 9.57317 5.59087 9.39705 5.10337C9.34783 4.9671 9.21859 4.87703 9.07462 4.87703C9.0706 4.87703 9.06692 4.87703 9.0629 4.87736C8.91424 4.88239 8.78567 4.98283 8.74482 5.1258C8.66444 5.40785 8.54485 5.64335 8.38815 5.8319C8.38671 5.83353 8.38585 5.83545 8.38443 5.83713C8.33075 5.90116 8.27283 5.95984 8.21045 6.01274ZM9.03658 6.1016C9.05968 6.06799 9.08548 6.03727 9.1071 6.00203C9.45598 6.4748 9.95687 6.81263 10.5338 6.94723C10.5602 6.95326 10.5863 6.95627 10.6121 6.95627C10.7631 6.95627 10.9007 6.85582 10.9423 6.70415C11.1271 6.0325 11.0695 5.34176 10.7949 4.75314C10.8559 4.74662 10.9153 4.7308 10.9755 4.7192C11.1671 4.99413 11.3697 5.26831 11.5868 5.53529L13.2117 7.54991L13.9389 8.38596C14.2279 8.72337 14.4094 9.14617 14.4757 9.60002H10.2219C9.93176 8.34276 9.5426 7.19207 9.03658 6.1016ZM4.51703 2.27982C4.5706 2.5691 4.54449 2.86843 4.43734 3.15069C4.3789 3.30508 4.29283 3.44366 4.19242 3.57152C4.18169 3.33141 4.13213 3.09662 4.05008 2.87409C4.15906 2.64 4.31654 2.43618 4.51703 2.27982ZM2.8071 2.33272C3.05376 2.50306 3.24366 2.73601 3.36359 3.00069C3.36527 3.00462 3.36665 3.00839 3.36849 3.01232C3.48572 3.27641 3.53381 3.57135 3.49817 3.86721C3.25304 3.69796 3.06422 3.46659 2.94419 3.20397C2.94239 3.19974 2.94027 3.19589 2.93831 3.19171C2.81976 2.92661 2.77127 2.63008 2.8071 2.33272ZM1.63455 3.57759C1.88479 3.53209 2.1408 3.54879 2.38752 3.62187C2.50168 3.83515 2.64559 4.02704 2.8161 4.19177C2.65475 4.18181 2.49387 4.15423 2.33902 4.09522C2.0571 3.98841 1.81569 3.80962 1.63455 3.57759ZM3.86574 8.9395C4.01654 8.85127 4.1785 8.79184 4.35766 8.76297C4.54449 8.73283 4.67172 8.55705 4.64158 8.36989C4.61145 8.18305 4.43533 8.05482 4.2485 8.08596C3.96995 8.13074 3.71103 8.22708 3.47534 8.3724C3.13037 7.86112 2.91684 7.51299 2.84862 7.36475C2.6273 6.87089 2.61089 6.31944 2.80308 5.81285C2.99527 5.30593 3.37261 4.90515 3.86647 4.6835C4.36 4.46118 4.91045 4.44444 5.41636 4.63562C5.88191 4.81207 6.25182 5.15037 6.48233 5.58635C6.26785 5.667 6.06667 5.7782 5.88478 5.92736C5.73812 6.04756 5.71703 6.26352 5.8369 6.40984C5.90487 6.49254 6.00297 6.5354 6.10241 6.5354C6.17875 6.5354 6.25576 6.50995 6.31937 6.45772C6.44391 6.35552 6.57798 6.28098 6.72198 6.22694C6.93237 6.95819 7.23565 8.24901 7.51038 9.60002H4.3365C4.16576 9.3638 4.00802 9.14249 3.86574 8.9395ZM18.4225 21.9402C18.3217 22.3457 17.9591 22.6286 17.5412 22.6286H6.45866C6.0408 22.6286 5.67819 22.3457 5.57741 21.9402L3.29627 12.7999H20.7036L18.4225 21.9402ZM21.7141 12.1142H21.1426H2.85732H2.28578C1.78154 12.1142 1.37138 11.704 1.37138 11.2001C1.37138 10.6959 1.78154 10.2857 2.28578 10.2857H14.851H14.8543H21.7141C22.2184 10.2857 22.6285 10.6959 22.6285 11.2001C22.6285 11.704 22.2184 12.1142 21.7141 12.1142Z" fill="#35363B"/>
<path d="M15.3228 21.1828C15.3385 21.1848 15.3539 21.1858 15.3693 21.1858C15.5384 21.1858 15.6854 21.061 15.7088 20.8892L16.5583 14.632C16.5837 14.4442 16.4521 14.2714 16.2646 14.246C16.0758 14.2242 15.904 14.3521 15.8786 14.5396L15.0291 20.7968C15.0037 20.9846 15.1353 21.1574 15.3228 21.1828ZM12 21.1858C12.1895 21.1858 12.3429 21.0325 12.3429 20.843V14.5858C12.3429 14.3963 12.1895 14.243 12 14.243C11.8105 14.243 11.6571 14.3963 11.6571 14.5858V20.843C11.6571 21.0325 11.8105 21.1858 12 21.1858ZM8.6307 21.1858C8.6461 21.1858 8.6615 21.1848 8.67724 21.1828C8.86474 21.1574 8.99632 20.9846 8.97088 20.7968L8.12143 14.5396C8.09599 14.3521 7.92456 14.2246 7.73539 14.246C7.54789 14.2714 7.4163 14.4442 7.44175 14.632L8.29119 20.8892C8.31463 21.061 8.46161 21.1858 8.6307 21.1858ZM15.8173 8.94042C16.0068 8.94042 16.1602 8.78707 16.1602 8.59756C16.1602 7.88372 16.5459 7.22546 17.1921 6.83606C17.3545 6.7383 17.4067 6.52769 17.3089 6.36564C17.2112 6.20325 17.0002 6.15035 16.8385 6.24879C15.9844 6.76307 15.4744 7.64097 15.4744 8.59756C15.4744 8.78707 15.6278 8.94042 15.8173 8.94042Z" fill="#35363B"/>
</g>
<defs>
<clipPath id="clip0_74_288">
<rect width="24" height="24" fill="white"/>
</clipPath>
</defs>
</svg>
