<svg width="18" height="20" viewBox="0 0 18 20" fill="none" xmlns="http://www.w3.org/2000/svg">
<path d="M10.3452 12.8053C9.62517 12.8053 9.03885 12.2674 8.96709 12.1988C8.90676 12.1412 8.8668 12.0656 8.85325 11.9833C8.8397 11.9011 8.85329 11.8166 8.89197 11.7428C8.94549 11.6405 9.43941 10.7384 10.2638 10.5701C11.1055 10.3985 11.8401 11.0713 11.921 11.1485C11.9813 11.2061 12.0213 11.2817 12.0348 11.364C12.0484 11.4462 12.0348 11.5307 11.9961 11.6045C11.9424 11.707 11.4484 12.6092 10.6243 12.7774C10.5324 12.796 10.4389 12.8053 10.3452 12.8053ZM9.74829 11.8316C9.94989 11.9571 10.2245 12.0752 10.4707 12.0236C10.7347 11.9698 10.9783 11.7253 11.1398 11.5148C10.938 11.389 10.6634 11.2712 10.4172 11.3213C10.152 11.3765 9.90957 11.6211 9.74829 11.8316Z" fill="#35363B"/>
<path d="M11.6561 11.8105C11.6041 11.8104 11.5526 11.7997 11.5048 11.779C11.457 11.7584 11.4139 11.7283 11.3782 11.6905C11.3009 11.6096 10.6279 10.8745 10.7998 10.0333C10.9678 9.20913 11.8702 8.71521 11.9724 8.66145C12.0463 8.62277 12.1307 8.60918 12.213 8.62273C12.2952 8.63628 12.3709 8.67624 12.4284 8.73657C12.5057 8.81745 13.1786 9.55257 13.0068 10.3938C12.8388 11.2182 11.9364 11.7121 11.8342 11.7656C11.7793 11.7948 11.7182 11.8102 11.6561 11.8105ZM12.061 9.51849C11.8493 9.68049 11.6062 9.92289 11.5522 10.1878C11.502 10.4341 11.6208 10.7096 11.7456 10.9105C11.9573 10.7485 12.2016 10.5061 12.2544 10.2414C12.3046 9.99513 12.1858 9.71937 12.061 9.51849ZM8.20609 10.6662C7.48609 10.6662 6.89977 10.1283 6.82777 10.0597C6.76748 10.0021 6.72757 9.92648 6.71406 9.84421C6.70055 9.76195 6.71418 9.67752 6.75289 9.60369C6.80641 9.50145 7.30033 8.59929 8.12449 8.43105C8.96641 8.25921 9.70081 8.93217 9.78193 9.00945C9.84222 9.06703 9.88213 9.14266 9.89564 9.22492C9.90915 9.30719 9.89552 9.39161 9.85681 9.46545C9.80329 9.56769 9.30937 10.4698 8.48521 10.6381C8.39336 10.6569 8.29984 10.6663 8.20609 10.6662ZM7.60801 9.69249C7.80985 9.81801 8.08441 9.93585 8.33065 9.88569C8.59585 9.83193 8.83921 9.58737 9.00001 9.37593C8.79817 9.25041 8.52361 9.13257 8.27737 9.18393C8.01385 9.23745 7.77049 9.48177 7.60801 9.69249Z" fill="#35363B"/>
<path d="M9.51691 9.67138C9.46487 9.67125 9.4134 9.66055 9.36563 9.63992C9.31785 9.61929 9.27477 9.58917 9.23899 9.55138C9.16147 9.4705 8.48875 8.73538 8.66035 7.89418C8.82835 7.06978 9.73075 6.57586 9.83323 6.52234C9.90709 6.48366 9.99153 6.47007 10.0738 6.48362C10.1561 6.49718 10.2317 6.53713 10.2892 6.59746C10.3665 6.67834 11.0395 7.41346 10.8676 8.25466C10.6996 9.07882 9.79723 9.57274 9.69499 9.6265C9.64014 9.65564 9.57903 9.67104 9.51691 9.67138ZM9.92179 7.37938C9.70987 7.54138 9.46699 7.78378 9.41299 8.04874C9.36259 8.29498 9.48139 8.5705 9.60499 8.77138C9.81691 8.60938 10.061 8.36698 10.1138 8.10202C10.1654 7.85578 10.0466 7.58026 9.92179 7.37938ZM12.4843 14.9439C11.7643 14.9439 11.178 14.4061 11.1062 14.3375C11.0459 14.2799 11.0059 14.2043 10.9924 14.122C10.9788 14.0398 10.9924 13.9553 11.0311 13.8815C11.0848 13.779 11.5788 12.8768 12.4029 12.7086C13.2446 12.537 13.9792 13.2099 14.0601 13.2872C14.1207 13.3447 14.1609 13.4204 14.1746 13.5029C14.1883 13.5853 14.1747 13.6699 14.136 13.7439C14.0824 13.8462 13.5885 14.7483 12.7641 14.9166C12.672 14.9351 12.5782 14.9442 12.4843 14.9439ZM11.8874 13.9703C12.0892 14.0958 12.3636 14.2139 12.61 14.1623C12.874 14.1085 13.1176 13.8639 13.2789 13.6535C13.0773 13.5279 12.8028 13.4099 12.5565 13.4615C12.2923 13.5157 12.048 13.7603 11.8874 13.9707V13.9703Z" fill="#35363B"/>
<path d="M13.7952 13.9498C13.7431 13.9497 13.6917 13.939 13.6439 13.9183C13.5961 13.8977 13.553 13.8676 13.5173 13.8298C13.44 13.7487 12.767 13.0138 12.9389 12.1723C13.1069 11.3482 14.0093 10.8543 14.1115 10.8007C14.1853 10.762 14.2698 10.7484 14.352 10.7619C14.4343 10.7754 14.5099 10.8153 14.5675 10.8756C14.6448 10.9567 15.3177 11.6916 15.1459 12.5331C14.9779 13.3572 14.0755 13.8511 13.9733 13.9047C13.9184 13.9339 13.8573 13.9494 13.7952 13.9498ZM14.2001 11.658C13.9884 11.8198 13.7455 12.0622 13.6913 12.3271C13.6411 12.5734 13.7599 12.8489 13.8847 13.05C14.0964 12.888 14.3407 12.6456 14.3935 12.3807C14.4439 12.1344 14.3249 11.8589 14.2001 11.658Z" fill="#35363B"/>
<path d="M15.7397 15.8944C15.6893 15.8944 15.6394 15.8845 15.5928 15.8652C15.5462 15.8459 15.5039 15.8175 15.4683 15.7818L7.99446 8.30797C7.9242 8.23559 7.88524 8.13847 7.886 8.0376C7.88675 7.93674 7.92717 7.84022 7.99852 7.7689C8.06986 7.69759 8.16639 7.65722 8.26726 7.6565C8.36813 7.65579 8.46523 7.69479 8.53758 7.76509L16.0114 15.2389C16.0651 15.2926 16.1016 15.3611 16.1164 15.4356C16.1312 15.51 16.1236 15.5872 16.0945 15.6574C16.0655 15.7276 16.0162 15.7875 15.9531 15.8297C15.8899 15.8719 15.8157 15.8944 15.7397 15.8944ZM5.3619 15.6733C4.6179 15.6733 4.00014 15.0925 3.9699 15.0649C3.90957 15.0074 3.86961 14.9318 3.85606 14.8495C3.84251 14.7672 3.8561 14.6828 3.89478 14.6089C3.94878 14.506 4.44486 13.6009 5.27286 13.4308C6.13254 13.2551 6.90486 13.9808 6.9375 14.0118C6.99782 14.0694 7.03778 14.145 7.05134 14.2272C7.06489 14.3095 7.0513 14.3939 7.01262 14.4678C6.95862 14.5705 6.46254 15.477 5.63454 15.646C5.54481 15.6642 5.45347 15.6734 5.3619 15.6733ZM4.75206 14.6975C4.95534 14.824 5.23206 14.944 5.48214 14.8936C5.74926 14.8391 5.99502 14.5914 6.15774 14.379C5.95422 14.252 5.67774 14.1323 5.42766 14.1832C5.16006 14.2379 4.91502 14.4836 4.75206 14.6975Z" fill="#35363B"/>
<path d="M6.6737 14.6738C6.62166 14.6737 6.57019 14.663 6.52241 14.6424C6.47464 14.6217 6.43155 14.5916 6.39578 14.5538C6.36482 14.5214 5.63906 13.7491 5.8145 12.8892C5.9825 12.0614 6.88994 11.5651 6.99266 11.5111C7.06651 11.4724 7.15096 11.4588 7.23322 11.4724C7.31549 11.4859 7.39111 11.5259 7.44866 11.5862C7.47962 11.6186 8.20538 12.3912 8.02994 13.2509C7.86194 14.0789 6.9545 14.575 6.85178 14.629C6.79692 14.6581 6.73581 14.6735 6.6737 14.6738ZM7.0817 12.3679C6.86786 12.5311 6.62186 12.7759 6.56738 13.0438C6.5165 13.2929 6.63722 13.5718 6.76322 13.7741C6.97706 13.6109 7.22306 13.3661 7.27778 13.0982C7.32818 12.8494 7.20746 12.5707 7.08146 12.3679H7.0817ZM3.21074 13.5223C2.46674 13.5223 1.84874 12.9413 1.81874 12.9137C1.75845 12.8561 1.71854 12.7805 1.70503 12.6982C1.69152 12.6159 1.70515 12.5315 1.74386 12.4577C1.79762 12.355 2.29394 11.4497 3.1217 11.2795C3.98162 11.1041 4.7537 11.8298 4.78658 11.8608C4.84686 11.9184 4.88678 11.994 4.90029 12.0763C4.91379 12.1585 4.90016 12.243 4.86146 12.3168C4.8077 12.4195 4.31138 13.326 3.48362 13.495C3.39381 13.5132 3.30239 13.5224 3.21074 13.5223ZM2.6009 12.5465C2.80418 12.6734 3.0809 12.7932 3.33098 12.7423C3.5981 12.6878 3.84386 12.4404 4.00658 12.228C3.80306 12.101 3.52538 11.9813 3.27626 12.0322C3.00914 12.0866 2.76338 12.3341 2.6009 12.5465Z" fill="#35363B"/>
<path d="M4.52251 12.5225C4.47043 12.5224 4.41892 12.5117 4.3711 12.4911C4.32328 12.4704 4.28016 12.4403 4.24435 12.4025C4.21339 12.3701 3.48787 11.5977 3.66331 10.7378C3.83131 9.90982 4.73875 9.41374 4.84147 9.35974C4.91533 9.32106 4.99977 9.30747 5.08204 9.32103C5.1643 9.33458 5.23992 9.37454 5.29747 9.43486C5.32795 9.46846 6.05419 10.2401 5.87995 11.1007C5.71195 11.9285 4.80451 12.4248 4.70155 12.4788C4.64633 12.5077 4.58486 12.5227 4.52251 12.5225ZM4.93051 10.2168C4.71691 10.38 4.47091 10.6248 4.41619 10.8926C4.36555 11.1415 4.48507 11.4192 4.61227 11.6227C4.82611 11.4597 5.07211 11.2147 5.12659 10.9471C5.17699 10.6982 5.05723 10.4205 4.93003 10.2161L4.93051 10.2168ZM7.51315 17.8241C6.76915 17.8241 6.15115 17.2433 6.12115 17.2157C6.06086 17.1581 6.02095 17.0825 6.00744 17.0002C5.99393 16.9179 6.00756 16.8335 6.04627 16.7597C6.10003 16.6569 6.59635 15.7517 7.42411 15.5815C8.28403 15.4058 9.05611 16.1316 9.08875 16.1625C9.14908 16.2201 9.18904 16.2957 9.20259 16.378C9.21614 16.4602 9.20255 16.5447 9.16387 16.6185C9.11011 16.7215 8.61379 17.628 7.78579 17.7967C7.69607 17.815 7.60472 17.8241 7.51315 17.8241ZM6.90307 16.8485C7.10659 16.9754 7.38427 17.0952 7.63315 17.0443C7.90075 16.9898 8.14555 16.7438 8.30875 16.53C8.10523 16.403 7.82875 16.2833 7.57843 16.3339C7.31155 16.3889 7.06579 16.6365 6.90307 16.8489V16.8485Z" fill="#35363B"/>
<path d="M8.82482 16.8248C8.77279 16.8247 8.72132 16.814 8.67354 16.7933C8.62577 16.7727 8.58268 16.7426 8.5469 16.7048C8.51594 16.6721 7.79018 15.8998 7.96586 15.0399C8.13386 14.2121 9.04106 13.7158 9.14402 13.6621C9.21786 13.6234 9.30228 13.6097 9.38455 13.6232C9.46681 13.6367 9.54245 13.6767 9.60002 13.7369C9.63098 13.7696 10.3565 14.5419 10.1811 15.4018C10.0131 16.2296 9.10562 16.7259 9.0029 16.7797C8.94807 16.8089 8.88696 16.8244 8.82482 16.8248ZM9.23282 14.5191C9.01898 14.6823 8.77322 14.9271 8.7185 15.1947C8.66762 15.4438 8.78738 15.7213 8.91458 15.925C9.12842 15.7618 9.37418 15.517 9.4289 15.2494C9.48002 15.0003 9.36002 14.7229 9.23258 14.5191H9.23282Z" fill="#35363B"/>
<path d="M10.7804 18.7803C10.7299 18.7804 10.68 18.7705 10.6334 18.7512C10.5867 18.7319 10.5444 18.7037 10.5087 18.668L2.9931 11.1519C2.95744 11.1163 2.92915 11.0739 2.90985 11.0273C2.89055 10.9808 2.88062 10.9308 2.88062 10.8804C2.88062 10.8299 2.89055 10.78 2.90985 10.7334C2.92915 10.6868 2.95744 10.6445 2.9931 10.6088C3.02876 10.5732 3.0711 10.5449 3.11769 10.5256C3.16429 10.5063 3.21423 10.4963 3.26466 10.4963C3.31509 10.4963 3.36503 10.5063 3.41163 10.5256C3.45822 10.5449 3.50056 10.5732 3.53622 10.6088L11.0518 18.1249C11.1055 18.1786 11.142 18.247 11.1568 18.3215C11.1716 18.3959 11.164 18.4731 11.135 18.5433C11.1059 18.6134 11.0567 18.6734 10.9936 18.7156C10.9305 18.7578 10.8563 18.7803 10.7804 18.7803Z" fill="#35363B"/>
<path d="M14.8363 19.984H3.16366C1.6099 19.984 0.345581 18.8916 0.345581 17.5485V7.88012C0.345581 7.77828 0.386038 7.6806 0.458052 7.60859C0.530066 7.53658 0.627738 7.49612 0.729581 7.49612C0.831424 7.49612 0.929096 7.53658 1.00111 7.60859C1.07312 7.6806 1.11358 7.77828 1.11358 7.88012V17.5485C1.11358 18.468 2.03326 19.216 3.16366 19.216H14.8363C15.9667 19.216 16.8864 18.468 16.8864 17.5485V7.88012C16.8864 7.77828 16.9268 7.6806 16.9989 7.60859C17.0709 7.53658 17.1685 7.49612 17.2704 7.49612C17.3722 7.49612 17.4699 7.53658 17.5419 7.60859C17.6139 7.6806 17.6544 7.77828 17.6544 7.88012V17.5485C17.6544 18.8916 16.3901 19.984 14.8363 19.984ZM16.8631 6.04388H1.13686C1.03502 6.04388 0.937346 6.00342 0.865332 5.93141C0.793318 5.85939 0.752861 5.76172 0.752861 5.65988C0.752861 5.55804 0.793318 5.46036 0.865332 5.38835C0.937346 5.31634 1.03502 5.27588 1.13686 5.27588H16.8631C16.9649 5.27588 17.0626 5.31634 17.1346 5.38835C17.2066 5.46036 17.2471 5.55804 17.2471 5.65988C17.2471 5.76172 17.2066 5.85939 17.1346 5.93141C17.0626 6.00342 16.9649 6.04388 16.8631 6.04388Z" fill="#35363B"/>
<path d="M17.2704 8.26419C17.1686 8.26419 17.0709 8.22374 16.9989 8.15172C16.9269 8.07971 16.8864 7.98204 16.8864 7.88019C16.8864 7.14603 16.7551 6.42723 16.5065 5.80179C16.0843 4.74027 15.3627 4.03107 14.5759 3.90579C14.5079 3.89485 14.444 3.86579 14.3911 3.82166C14.3381 3.77753 14.298 3.71996 14.275 3.65499C13.819 2.36475 12.9535 1.56315 12.019 1.56315C11.7218 1.56517 11.4301 1.64343 11.1718 1.79043C11.092 1.83458 10.9992 1.84892 10.9098 1.83089C10.8205 1.81286 10.7405 1.76364 10.6841 1.69203C10.224 1.10619 9.64802 0.784113 9.06314 0.784113H9.04802C8.94618 0.786755 8.84746 0.748831 8.77357 0.678685C8.69969 0.608539 8.6567 0.511916 8.65406 0.410073C8.65142 0.30823 8.68934 0.209509 8.75949 0.135627C8.82963 0.0617453 8.92626 0.0187548 9.0281 0.0161133H9.0629C9.80018 0.0161133 10.5089 0.355953 11.0856 0.979713C11.3813 0.857359 11.6982 0.794246 12.0183 0.793953C13.2334 0.793953 14.3316 1.70763 14.9223 3.19395C15.3802 3.31395 15.8179 3.56763 16.2003 3.93795C16.6176 4.34331 16.9704 4.88955 17.22 5.51763C17.5042 6.23259 17.6544 7.04931 17.6544 7.87971C17.6545 7.93018 17.6446 7.98017 17.6253 8.02681C17.6061 8.07346 17.5778 8.11584 17.5421 8.15155C17.5065 8.18726 17.4641 8.21559 17.4175 8.23492C17.3709 8.25425 17.3209 8.26419 17.2704 8.26419Z" fill="#35363B"/>
<path d="M0.729581 8.2642C0.627738 8.2642 0.530066 8.22374 0.458052 8.15173C0.386038 8.07972 0.345581 7.98205 0.345581 7.8802C0.345581 7.0498 0.495821 6.23308 0.779981 5.51812C1.02958 4.89004 1.38238 4.3438 1.79974 3.93844C2.18206 3.56716 2.61982 3.31252 3.07774 3.19444C3.66814 1.7086 4.76638 0.794442 5.98174 0.794442C6.30178 0.794735 6.61865 0.857848 6.91438 0.980202C7.49038 0.356202 8.19982 0.0166016 8.9371 0.0166016H8.9719C9.07374 0.0192431 9.17037 0.0622336 9.24051 0.136115C9.31066 0.209997 9.34858 0.308718 9.34594 0.410562C9.3433 0.512405 9.30031 0.609027 9.22643 0.679173C9.15255 0.74932 9.05382 0.787243 8.95198 0.784602H8.9371C8.35198 0.784122 7.77598 1.1062 7.31638 1.69084C7.26 1.76245 7.17998 1.81167 7.09063 1.8297C7.00129 1.84773 6.90844 1.83339 6.8287 1.78924C6.5704 1.64224 6.2787 1.56398 5.9815 1.56196C5.0455 1.56196 4.1815 2.36356 3.7255 3.6538C3.70235 3.71874 3.66215 3.77626 3.60911 3.8203C3.55607 3.86435 3.49215 3.8933 3.42406 3.90412C2.63734 4.0306 1.91566 4.7398 1.4935 5.80156C1.2451 6.42676 1.11358 7.14556 1.11358 7.87972C1.11364 7.93019 1.10376 7.98018 1.08449 8.02682C1.06522 8.07346 1.03694 8.11585 1.00128 8.15156C0.965616 8.18727 0.923263 8.2156 0.876643 8.23493C0.830022 8.25425 0.780049 8.2642 0.729581 8.2642ZM12.077 3.09628H11.7211C11.6193 3.09628 11.5216 3.05582 11.4496 2.98381C11.3776 2.9118 11.3371 2.81412 11.3371 2.71228C11.3371 2.61044 11.3776 2.51277 11.4496 2.44075C11.5216 2.36874 11.6193 2.32828 11.7211 2.32828H12.077C12.1789 2.32828 12.2765 2.36874 12.3485 2.44075C12.4206 2.51277 12.461 2.61044 12.461 2.71228C12.461 2.81412 12.4206 2.9118 12.3485 2.98381C12.2765 3.05582 12.1789 3.09628 12.077 3.09628ZM10.1023 3.09628H9.74614C9.6443 3.09628 9.54663 3.05582 9.47461 2.98381C9.4026 2.9118 9.36214 2.81412 9.36214 2.71228C9.36214 2.61044 9.4026 2.51277 9.47461 2.44075C9.54663 2.36874 9.6443 2.32828 9.74614 2.32828H10.1023C10.2041 2.32828 10.3018 2.36874 10.3738 2.44075C10.4458 2.51277 10.4863 2.61044 10.4863 2.71228C10.4863 2.81412 10.4458 2.9118 10.3738 2.98381C10.3018 3.05582 10.2041 3.09628 10.1023 3.09628ZM8.12734 3.09628H7.77142C7.66958 3.09628 7.57191 3.05582 7.49989 2.98381C7.42788 2.9118 7.38742 2.81412 7.38742 2.71228C7.38742 2.61044 7.42788 2.51277 7.49989 2.44075C7.57191 2.36874 7.66958 2.32828 7.77142 2.32828H8.12734C8.22918 2.32828 8.32686 2.36874 8.39887 2.44075C8.47088 2.51277 8.51134 2.61044 8.51134 2.71228C8.51134 2.81412 8.47088 2.9118 8.39887 2.98381C8.32686 3.05582 8.22918 3.09628 8.12734 3.09628Z" fill="#35363B"/>
<path d="M6.15263 3.09613H5.79647C5.69463 3.09613 5.59696 3.05567 5.52494 2.98365C5.45293 2.91164 5.41247 2.81397 5.41247 2.71213C5.41247 2.61028 5.45293 2.51261 5.52494 2.4406C5.59696 2.36858 5.69463 2.32813 5.79647 2.32812H6.15263C6.25447 2.32812 6.35215 2.36858 6.42416 2.4406C6.49617 2.51261 6.53663 2.61028 6.53663 2.71213C6.53663 2.81397 6.49617 2.91164 6.42416 2.98365C6.35215 3.05567 6.25447 3.09613 6.15263 3.09613ZM13.032 4.64365H12.5681C12.4662 4.64365 12.3686 4.60319 12.2965 4.53117C12.2245 4.45916 12.1841 4.36149 12.1841 4.25965C12.1841 4.1578 12.2245 4.06013 12.2965 3.98812C12.3686 3.9161 12.4662 3.87565 12.5681 3.87565H13.032C13.1338 3.87565 13.2315 3.9161 13.3035 3.98812C13.3755 4.06013 13.416 4.1578 13.416 4.25965C13.416 4.36149 13.3755 4.45916 13.3035 4.53117C13.2315 4.60319 13.1338 4.64365 13.032 4.64365ZM10.457 4.64365H9.99239C9.89055 4.64365 9.79288 4.60319 9.72086 4.53117C9.64885 4.45916 9.60839 4.36149 9.60839 4.25965C9.60839 4.1578 9.64885 4.06013 9.72086 3.98812C9.79288 3.9161 9.89055 3.87565 9.99239 3.87565H10.457C10.5589 3.87565 10.6565 3.9161 10.7286 3.98812C10.8006 4.06013 10.841 4.1578 10.841 4.25965C10.841 4.36149 10.8006 4.45916 10.7286 4.53117C10.6565 4.60319 10.5589 4.64365 10.457 4.64365ZM7.88111 4.64365H7.41599C7.31415 4.64365 7.21648 4.60319 7.14446 4.53117C7.07245 4.45916 7.03199 4.36149 7.03199 4.25965C7.03199 4.1578 7.07245 4.06013 7.14446 3.98812C7.21648 3.9161 7.31415 3.87565 7.41599 3.87565H7.88039C7.98223 3.87565 8.07991 3.9161 8.15192 3.98812C8.22393 4.06013 8.26439 4.1578 8.26439 4.25965C8.26439 4.36149 8.22393 4.45916 8.15192 4.53117C8.07991 4.60319 7.98223 4.64365 7.88039 4.64365H7.88111ZM5.30543 4.64365H4.84103C4.73919 4.64365 4.64152 4.60319 4.5695 4.53117C4.49749 4.45916 4.45703 4.36149 4.45703 4.25965C4.45703 4.1578 4.49749 4.06013 4.5695 3.98812C4.64152 3.9161 4.73919 3.87565 4.84103 3.87565H5.30543C5.40727 3.87565 5.50495 3.9161 5.57696 3.98812C5.64897 4.06013 5.68943 4.1578 5.68943 4.25965C5.68943 4.36149 5.64897 4.45916 5.57696 4.53117C5.50495 4.60319 5.40727 4.64365 5.30543 4.64365Z" fill="#35363B"/>
</svg>
